<?xml version="1.0" encoding="UTF-8"?>
<svg xmlns="http://www.w3.org/2000/svg"
     xmlns:xlink="http://www.w3.org/1999/xlink"
     xmlns:gadfly="http://www.gadflyjl.org/ns"
     version="1.2"
     width="254mm" height="152.4mm" viewBox="0 0 254 152.4"
     stroke="none"
     fill="#000000"
     stroke-width="0.3"
     font-size="3.88"
>
<g class="plotroot yscalable" id="img-a92d1979-1">
  <g font-size="3.88" font-family="'PT Sans','Helvetica Neue','Helvetica',sans-serif" fill="#564A55" stroke="#000000" stroke-opacity="0.000" id="img-a92d1979-2">
    <text x="123.71" y="140.79" text-anchor="middle" dy="0.6em">Date</text>
  </g>
  <g class="guide xlabels" font-size="2.82" font-family="'PT Sans Caption','Helvetica Neue','Helvetica',sans-serif" fill="#6C606B" id="img-a92d1979-3">
    <text x="25.04" y="121.17" text-anchor="end" dy="0.35em" transform="rotate(-90, 25.04, 121.17)">4/3/15</text>
    <text x="33.62" y="121.17" text-anchor="end" dy="0.35em" transform="rotate(-90, 33.62, 121.17)">4/4/15</text>
    <text x="42.2" y="121.17" text-anchor="end" dy="0.35em" transform="rotate(-90, 42.2, 121.17)">4/6/15</text>
    <text x="50.78" y="121.17" text-anchor="end" dy="0.35em" transform="rotate(-90, 50.78, 121.17)">4/7/15</text>
    <text x="59.36" y="121.17" text-anchor="end" dy="0.35em" transform="rotate(-90, 59.36, 121.17)">4/8/15</text>
    <text x="67.94" y="121.17" text-anchor="end" dy="0.35em" transform="rotate(-90, 67.94, 121.17)">4/9/15</text>
    <text x="76.52" y="121.17" text-anchor="end" dy="0.35em" transform="rotate(-90, 76.52, 121.17)">4/10/15</text>
    <text x="85.1" y="121.17" text-anchor="end" dy="0.35em" transform="rotate(-90, 85.1, 121.17)">4/12/15</text>
    <text x="93.68" y="121.17" text-anchor="end" dy="0.35em" transform="rotate(-90, 93.68, 121.17)">4/13/15</text>
    <text x="102.26" y="121.17" text-anchor="end" dy="0.35em" transform="rotate(-90, 102.26, 121.17)">4/16/15</text>
    <text x="110.84" y="121.17" text-anchor="end" dy="0.35em" transform="rotate(-90, 110.84, 121.17)">4/19/15</text>
    <text x="119.42" y="121.17" text-anchor="end" dy="0.35em" transform="rotate(-90, 119.42, 121.17)">4/20/15</text>
    <text x="128" y="121.17" text-anchor="end" dy="0.35em" transform="rotate(-90, 128, 121.17)">4/21/15</text>
    <text x="136.58" y="121.17" text-anchor="end" dy="0.35em" transform="rotate(-90, 136.58, 121.17)">4/26/15</text>
    <text x="145.16" y="121.17" text-anchor="end" dy="0.35em" transform="rotate(-90, 145.16, 121.17)">5/9/15</text>
    <text x="153.74" y="121.17" text-anchor="end" dy="0.35em" transform="rotate(-90, 153.74, 121.17)">5/10/15</text>
    <text x="162.33" y="121.17" text-anchor="end" dy="0.35em" transform="rotate(-90, 162.33, 121.17)">5/17/15</text>
    <text x="170.91" y="121.17" text-anchor="end" dy="0.35em" transform="rotate(-90, 170.91, 121.17)">9/18/15</text>
    <text x="179.49" y="121.17" text-anchor="end" dy="0.35em" transform="rotate(-90, 179.49, 121.17)">2015-09-18</text>
    <text x="188.07" y="121.17" text-anchor="end" dy="0.35em" transform="rotate(-90, 188.07, 121.17)">2015-09-19</text>
    <text x="196.65" y="121.17" text-anchor="end" dy="0.35em" transform="rotate(-90, 196.65, 121.17)">2015-10-22</text>
    <text x="205.23" y="121.17" text-anchor="end" dy="0.35em" transform="rotate(-90, 205.23, 121.17)">2015-12-07</text>
    <text x="213.81" y="121.17" text-anchor="end" dy="0.35em" transform="rotate(-90, 213.81, 121.17)">2015-12-23</text>
    <text x="222.39" y="121.17" text-anchor="end" dy="0.35em" transform="rotate(-90, 222.39, 121.17)">2015-12-24</text>
  </g>
  <g class="guide colorkey" id="img-a92d1979-4">
    <g fill="#4C404B" font-size="2.82" font-family="'PT Sans','Helvetica Neue','Helvetica',sans-serif" id="img-a92d1979-5">
      <text x="230.49" y="33.57" dy="0.35em" id="img-a92d1979-6" class="color_indexing">indexing</text>
      <text x="230.49" y="37.2" dy="0.35em" id="img-a92d1979-7" class="color_range_indexing">range_indexing</text>
      <text x="230.49" y="40.83" dy="0.35em" id="img-a92d1979-8" class="color_setting">setting</text>
      <text x="230.49" y="44.45" dy="0.35em" id="img-a92d1979-9" class="color_range_setting">range_setting</text>
      <text x="230.49" y="48.08" dy="0.35em" id="img-a92d1979-10" class="color_scalar_add">scalar_add</text>
      <text x="230.49" y="51.71" dy="0.35em" id="img-a92d1979-11" class="color_length">length</text>
      <text x="230.49" y="55.33" dy="0.35em" id="img-a92d1979-12" class="color_nrun">nrun</text>
      <text x="230.49" y="58.96" dy="0.35em" id="img-a92d1979-13" class="color_mean">mean</text>
      <text x="230.49" y="62.59" dy="0.35em" id="img-a92d1979-14" class="color_max">max</text>
      <text x="230.49" y="66.21" dy="0.35em" id="img-a92d1979-15" class="color_width">width</text>
      <text x="230.49" y="69.84" dy="0.35em" id="img-a92d1979-16" class="color_last">last</text>
      <text x="230.49" y="73.47" dy="0.35em" id="img-a92d1979-17" class="color_first">first</text>
      <text x="230.49" y="77.09" dy="0.35em" id="img-a92d1979-18" class="color_add_two_rles">add_two_rles</text>
      <text x="230.49" y="80.72" dy="0.35em" id="img-a92d1979-19" class="color_disjoin">disjoin</text>
      <text x="230.49" y="84.35" dy="0.35em" id="img-a92d1979-20" class="color_which">which</text>
      <text x="230.49" y="87.97" dy="0.35em" id="img-a92d1979-21" class="color_scalar_less">scalar_less</text>
      <text x="230.49" y="91.6" dy="0.35em" id="img-a92d1979-22" class="color_median">median</text>
      <text x="230.49" y="95.23" dy="0.35em" id="img-a92d1979-23" class="color_which_max">which_max</text>
    </g>
    <g stroke="#000000" stroke-opacity="0.000" id="img-a92d1979-24">
      <rect x="227.68" y="32.67" width="1.81" height="1.81" id="img-a92d1979-25" fill="#00BFFF" class="color_indexing"/>
      <rect x="227.68" y="36.29" width="1.81" height="1.81" id="img-a92d1979-26" fill="#D4CA3A" class="color_range_indexing"/>
      <rect x="227.68" y="39.92" width="1.81" height="1.81" id="img-a92d1979-27" fill="#FF5EA0" class="color_setting"/>
      <rect x="227.68" y="43.55" width="1.81" height="1.81" id="img-a92d1979-28" fill="#00E5B2" class="color_range_setting"/>
      <rect x="227.68" y="47.17" width="1.81" height="1.81" id="img-a92d1979-29" fill="#F6A6FF" class="color_scalar_add"/>
      <rect x="227.68" y="50.8" width="1.81" height="1.81" id="img-a92d1979-30" fill="#9E9E9E" class="color_length"/>
      <rect x="227.68" y="54.43" width="1.81" height="1.81" id="img-a92d1979-31" fill="#FF928B" class="color_nrun"/>
      <rect x="227.68" y="58.05" width="1.81" height="1.81" id="img-a92d1979-32" fill="#32B44E" class="color_mean"/>
      <rect x="227.68" y="61.68" width="1.81" height="1.81" id="img-a92d1979-33" fill="#F08031" class="color_max"/>
      <rect x="227.68" y="65.31" width="1.81" height="1.81" id="img-a92d1979-34" fill="#00BBAA" class="color_width"/>
      <rect x="227.68" y="68.93" width="1.81" height="1.81" id="img-a92d1979-35" fill="#93C1FF" class="color_last"/>
      <rect x="227.68" y="72.56" width="1.81" height="1.81" id="img-a92d1979-36" fill="#D581CB" class="color_first"/>
      <rect x="227.68" y="76.19" width="1.81" height="1.81" id="img-a92d1979-37" fill="#00DEE6" class="color_add_two_rles"/>
      <rect x="227.68" y="79.81" width="1.81" height="1.81" id="img-a92d1979-38" fill="#A28FFA" class="color_disjoin"/>
      <rect x="227.68" y="83.44" width="1.81" height="1.81" id="img-a92d1979-39" fill="#8AAA16" class="color_which"/>
      <rect x="227.68" y="87.07" width="1.81" height="1.81" id="img-a92d1979-40" fill="#A3D57C" class="color_scalar_less"/>
      <rect x="227.68" y="90.69" width="1.81" height="1.81" id="img-a92d1979-41" fill="#EF7C75" class="color_median"/>
      <rect x="227.68" y="94.32" width="1.81" height="1.81" id="img-a92d1979-42" fill="#00BA8B" class="color_which_max"/>
    </g>
    <g fill="#362A35" font-size="3.88" font-family="'PT Sans','Helvetica Neue','Helvetica',sans-serif" stroke="#000000" stroke-opacity="0.000" id="img-a92d1979-43">
      <text x="227.68" y="29.75" id="img-a92d1979-44">variable</text>
    </g>
  </g>
<g clip-path="url(#img-a92d1979-45)">
  <g id="img-a92d1979-46">
    <g pointer-events="visible" opacity="1" fill="#000000" fill-opacity="0.000" stroke="#000000" stroke-opacity="0.000" class="guide background" id="img-a92d1979-47">
      <rect x="20.75" y="5" width="205.94" height="115.17" id="img-a92d1979-48"/>
    </g>
    <g class="guide ygridlines xfixed" stroke-dasharray="0.5,0.5" stroke-width="0.2" stroke="#D0D0E0" id="img-a92d1979-49">
      <path fill="none" d="M20.75,118.18 L 226.68 118.18" id="img-a92d1979-50"/>
      <path fill="none" d="M20.75,95.94 L 226.68 95.94" id="img-a92d1979-51"/>
      <path fill="none" d="M20.75,73.7 L 226.68 73.7" id="img-a92d1979-52"/>
      <path fill="none" d="M20.75,51.47 L 226.68 51.47" id="img-a92d1979-53"/>
      <path fill="none" d="M20.75,29.24 L 226.68 29.24" id="img-a92d1979-54"/>
      <path fill="none" d="M20.75,7 L 226.68 7" id="img-a92d1979-55"/>
    </g>
    <g class="guide xgridlines yfixed" stroke-dasharray="0.5,0.5" stroke-width="0.2" stroke="#D0D0E0" id="img-a92d1979-56">
      <path fill="none" d="M29.33,5 L 29.33 120.17" id="img-a92d1979-57"/>
      <path fill="none" d="M37.91,5 L 37.91 120.17" id="img-a92d1979-58"/>
      <path fill="none" d="M46.49,5 L 46.49 120.17" id="img-a92d1979-59"/>
      <path fill="none" d="M55.07,5 L 55.07 120.17" id="img-a92d1979-60"/>
      <path fill="none" d="M63.65,5 L 63.65 120.17" id="img-a92d1979-61"/>
      <path fill="none" d="M72.23,5 L 72.23 120.17" id="img-a92d1979-62"/>
      <path fill="none" d="M80.81,5 L 80.81 120.17" id="img-a92d1979-63"/>
      <path fill="none" d="M89.39,5 L 89.39 120.17" id="img-a92d1979-64"/>
      <path fill="none" d="M97.97,5 L 97.97 120.17" id="img-a92d1979-65"/>
      <path fill="none" d="M106.55,5 L 106.55 120.17" id="img-a92d1979-66"/>
      <path fill="none" d="M115.13,5 L 115.13 120.17" id="img-a92d1979-67"/>
      <path fill="none" d="M123.71,5 L 123.71 120.17" id="img-a92d1979-68"/>
      <path fill="none" d="M132.29,5 L 132.29 120.17" id="img-a92d1979-69"/>
      <path fill="none" d="M140.87,5 L 140.87 120.17" id="img-a92d1979-70"/>
      <path fill="none" d="M149.45,5 L 149.45 120.17" id="img-a92d1979-71"/>
      <path fill="none" d="M158.04,5 L 158.04 120.17" id="img-a92d1979-72"/>
      <path fill="none" d="M166.62,5 L 166.62 120.17" id="img-a92d1979-73"/>
      <path fill="none" d="M175.2,5 L 175.2 120.17" id="img-a92d1979-74"/>
      <path fill="none" d="M183.78,5 L 183.78 120.17" id="img-a92d1979-75"/>
      <path fill="none" d="M192.36,5 L 192.36 120.17" id="img-a92d1979-76"/>
      <path fill="none" d="M200.94,5 L 200.94 120.17" id="img-a92d1979-77"/>
      <path fill="none" d="M209.52,5 L 209.52 120.17" id="img-a92d1979-78"/>
      <path fill="none" d="M218.1,5 L 218.1 120.17" id="img-a92d1979-79"/>
    </g>
    <g class="plotpanel" id="img-a92d1979-80">
      <g stroke-width="0.3" fill="#000000" fill-opacity="0.000" stroke-dasharray="none" id="img-a92d1979-81">
        <path fill="none" d="M128,20.93 L 128 72.35 136.58 72.2 145.16 71.94 153.74 70.65 162.33 71.03 170.91 68.38 179.49 69.46 179.49 69.58 179.49 70.08 188.07 69.88 188.07 69.88 196.65 67.87 196.65 68.58 196.65 68.92 196.65 66.55 205.23 68.76 205.23 68.69 213.81 69.23 222.39 69.19 222.39 69.86 222.39 71.29" id="img-a92d1979-82" class="geometry color_which_max" stroke="#00BA8B"/>
        <path fill="none" d="M25.04,49.92 L 25.04 49.92 25.04 49.92 25.04 49.92 33.62 53 33.62 53 33.62 53 33.62 53 42.2 55.38 42.2 55.38 42.2 55.38 42.2 55.38 50.78 56.57 50.78 56.57 50.78 56.57 50.78 56.57 59.36 55.64 59.36 55.64 59.36 55.64 59.36 55.64 67.94 53.92 67.94 53.92 76.52 57.24 76.52 57.24 76.52 57.24 76.52 57.24 85.1 56.61 85.1 56.61 93.68 50.81 93.68 50.81 102.26 53.53 102.26 53.53 110.84 57.52 110.84 57.52 119.42 54.85 119.42 52.44 128 57.84 128 51.63 136.58 56.69 145.16 56.44 153.74 51.62 162.33 57.08 170.91 64.44 179.49 64.82 179.49 66.76 179.49 64.63 188.07 64.63 188.07 64.63 196.65 63.74 196.65 65.75 196.65 64.33 196.65 64.45 205.23 65.55 205.23 63.49 213.81 65.51 222.39 64.18 222.39 64.75 222.39 66.26" id="img-a92d1979-83" class="geometry color_width" stroke="#00BBAA"/>
        <path fill="none" d="M25.04,72.87 L 25.04 72.87 25.04 72.87 25.04 72.87 33.62 99.28 33.62 99.28 33.62 99.28 33.62 99.28 42.2 99.05 42.2 99.05 42.2 99.05 42.2 99.05 50.78 98.77 50.78 98.77 50.78 98.77 50.78 98.77 59.36 104.6 59.36 104.6 59.36 104.6 59.36 104.6 67.94 98.86 67.94 98.86 76.52 99.41 76.52 99.41 76.52 99.41 76.52 99.41 85.1 104.59 85.1 104.59 93.68 102.67 93.68 102.67 102.26 98.55 102.26 98.55 110.84 98.77 110.84 98.77 119.42 102.71 119.42 104.02 128 103.61 128 103.65 136.58 103.46 145.16 102.22 153.74 102.81 162.33 103.21 170.91 103.71 179.49 103.17 179.49 100.57 179.49 102.95 188.07 103.19 188.07 103.19 196.65 102.42 196.65 102.89 196.65 101.59 196.65 103.91 205.23 102.62 205.23 103.61 213.81 99.07 222.39 103.27 222.39 104.62 222.39 103.25" id="img-a92d1979-84" class="geometry color_indexing" stroke="#00BFFF"/>
        <path fill="none" d="M25.04,14.74 L 25.04 14.74 25.04 14.74 25.04 14.74 33.62 23.13 33.62 23.13 33.62 23.13 33.62 23.13 42.2 27.25 42.2 27.25 42.2 27.25 42.2 27.25 50.78 27.4 50.78 27.4 50.78 27.4 50.78 27.4 59.36 28.72 59.36 28.72 59.36 28.72 59.36 28.72 67.94 27.31 67.94 27.31 76.52 26.64 76.52 26.64 76.52 26.64 76.52 26.64 85.1 27.08 85.1 27.08 93.68 26.83 93.68 26.83 102.26 19.53 102.26 19.53 110.84 24.34 110.84 24.34 119.42 23.68 119.42 22.67 128 24.92 128 25.33 136.58 27.08 145.16 26.81 153.74 26.49 162.33 27.42 170.91 29.37 179.49 30.15 179.49 29.58 179.49 29.49 188.07 28.88 188.07 28.88" id="img-a92d1979-85" class="geometry color_add_two_rles" stroke="#00DEE6"/>
        <path fill="none" d="M196.65,29.39 L 205.23 28.72 205.23 28.93 213.81 28.64 222.39 28.51 222.39 29.58 222.39 29.77" id="img-a92d1979-86" class="geometry color_add_two_rles" stroke="#00DEE6"/>
        <path fill="none" d="M67.94,28.04 L 67.94 28.04 76.52 29.64 76.52 29.64 76.52 29.64 76.52 29.64 85.1 29.95 85.1 29.95 93.68 24.6 93.68 24.6 102.26 27.15 102.26 27.15 110.84 28.45 110.84 28.45 119.42 27.64 119.42 25.93 128 29.09 128 25.35 136.58 58.37 145.16 58.56 153.74 57.77 162.33 59.19" id="img-a92d1979-87" class="geometry color_range_setting" stroke="#00E5B2"/>
        <path fill="none" d="M25.04,44.75 L 25.04 44.75 25.04 44.75 25.04 44.75 33.62 44.62 33.62 44.62 33.62 44.62 33.62 44.62 42.2 47.1 42.2 47.1 42.2 47.1 42.2 47.1 50.78 46.95 50.78 46.95 50.78 46.95 50.78 46.95 59.36 46.71 59.36 46.71 59.36 46.71 59.36 46.71 67.94 44.77 67.94 44.77 76.52 46.46 76.52 46.46 76.52 46.46 76.52 46.46 85.1 46.75 85.1 46.75 93.68 44.31 93.68 44.31 102.26 46.25 102.26 46.25 110.84 64.19 110.84 64.19 119.42 66.98 119.42 67.18 128 69.65 128 69.76 136.58 69.57 145.16 66.7 153.74 63.8 162.33 69.62 170.91 77.17 179.49 75.87 179.49 76.61 179.49 75.2 188.07 72.67 188.07 72.67 196.65 76.32 196.65 75.46 196.65 76.33 196.65 73.38 205.23 76.09 205.23 75.02 213.81 75.28 222.39 76.58 222.39 75.27 222.39 77.09" id="img-a92d1979-88" class="geometry color_mean" stroke="#32B44E"/>
        <path fill="none" d="M59.36,18.01 L 59.36 18.01 59.36 18.01 59.36 18.01 67.94 17.94 67.94 17.94 76.52 18.15 76.52 18.15 76.52 18.15 76.52 18.15 85.1 33.29 85.1 33.29 93.68 17.21 93.68 17.21 102.26 17.66 102.26 17.66 110.84 37.75 110.84 37.75 119.42 36.76 119.42 40.28 128 40.56 128 40.2 136.58 41.84 145.16 40.9 153.74 38.29 162.33 40.52 170.91 46.25 179.49 46.19 179.49 46.43 179.49 46.64 188.07 46.03 188.07 46.03 196.65 45.5 196.65 45 196.65 45.39 196.65 45.77 205.23 44.75 205.23 45.31 213.81 45.5 222.39 44.44 222.39 42.86 222.39 46.83" id="img-a92d1979-89" class="geometry color_which" stroke="#8AAA16"/>
        <path fill="none" d="M25.04,88.49 L 25.04 88.49 25.04 88.49 25.04 88.49 33.62 113.4 33.62 113.4 33.62 113.4 33.62 113.4 42.2 111.2 42.2 111.2 42.2 111.2 42.2 111.2 50.78 112.5 50.78 112.5 50.78 112.5 50.78 112.5 59.36 113.34 59.36 113.34 59.36 113.34 59.36 113.34 67.94 108.17 67.94 108.17 76.52 107.86 76.52 107.86 76.52 107.86 76.52 107.86 85.1 113.11 85.1 113.11 93.68 113.4 93.68 113.4 102.26 108.51 102.26 108.51 110.84 107.21 110.84 107.21 119.42 107.44 119.42 113.4 128 114.06 128 108.06 136.58 114.12 145.16 111.48 153.74 112.82 162.33 112.45 170.91 113.89 179.49 113.64 179.49 112.82 179.49 113.11 188.07 113.27 188.07 113.27 196.65 112.56 196.65 113.83 196.65 110.82 196.65 110.96 205.23 113.77 205.23 113.83 213.81 112.6 222.39 112.93 222.39 113.7 222.39 113.77" id="img-a92d1979-90" class="geometry color_last" stroke="#93C1FF"/>
        <path fill="none" d="M25.04,90.38 L 25.04 90.38 25.04 90.38 25.04 90.38 33.62 108.44 33.62 108.44 33.62 108.44 33.62 108.44 42.2 108.59 42.2 108.59 42.2 108.59 42.2 108.59 50.78 103.82 50.78 103.82 50.78 103.82 50.78 103.82 59.36 103.87 59.36 103.87 59.36 103.87 59.36 103.87 67.94 106.28 67.94 106.28 76.52 103.61 76.52 103.61 76.52 103.61 76.52 103.61 85.1 108.79 85.1 108.79 93.68 103.74 93.68 103.74 102.26 104.21 102.26 104.21 110.84 103.52 110.84 103.52 119.42 102.95 119.42 103.33 128 109.48 128 109.17 136.58 109.6 145.16 105.08 153.74 109.13 162.33 59.02 170.91 108.48 179.49 106.62 179.49 108.41 179.49 107.6 188.07 103.65 188.07 103.65 196.65 104.88 196.65 108.55 196.65 108.41 196.65 108.48 205.23 107.6 205.23 107.35 213.81 107.69 222.39 106.77 222.39 104.55 222.39 107.63" id="img-a92d1979-91" class="geometry color_length" stroke="#9E9E9E"/>
        <path fill="none" d="M33.62,30.85 L 33.62 30.85 33.62 30.85 33.62 30.85 42.2 52.99 42.2 52.99 42.2 52.99 42.2 52.99 50.78 53.35 50.78 53.35 50.78 53.35 50.78 53.35 59.36 51.73 59.36 51.73 59.36 51.73 59.36 51.73 67.94 51.15 67.94 51.15 76.52 51.8 76.52 51.8 76.52 51.8 76.52 51.8 85.1 54.36 85.1 54.36 93.68 48.2 93.68 48.2 102.26 51.38 102.26 51.38 110.84 52.13 110.84 52.13 119.42 48.21 119.42 50.9 128 53.51 128 61.84 136.58 54.54 145.16 53.73 153.74 49.95 162.33 52.29 170.91 60.51 179.49 61.15 179.49 59.21 179.49 60.3 188.07 60.37 188.07 60.37 196.65 58.99 196.65 59.22 196.65 56.74 196.65 60.78 205.23 60.08 205.23 60.21 213.81 60.05 222.39 59.04 222.39 60.22 222.39 60.95" id="img-a92d1979-92" class="geometry color_disjoin" stroke="#A28FFA"/>
        <path fill="none" d="M76.52,48.18 L 76.52 48.18 76.52 48.18 76.52 48.18 85.1 47.72 85.1 47.72 93.68 46.02 93.68 46.02 102.26 25.37 102.26 25.37 110.84 43.35 110.84 43.35 119.42 44.99 119.42 42.16 128 44.62 128 44.17 136.58 45.3 145.16 44.62 153.74 42.04 162.33 45.3 170.91 47.91 179.49 47.7 179.49 47.9 179.49 47.89 188.07 47.46 188.07 47.46 196.65 46.88 196.65 47.09 196.65 47.12 196.65 47.43 205.23 49.04 205.23 48.05 213.81 49.08 222.39 48.78 222.39 47.53 222.39 49.31" id="img-a92d1979-93" class="geometry color_scalar_less" stroke="#A3D57C"/>
        <path fill="none" d="M59.36,60.6 L 59.36 60.6 59.36 60.6 59.36 60.6 67.94 59.23 67.94 59.23 76.52 59.36 76.52 59.36 76.52 59.36 76.52 59.36 85.1 50.43 85.1 50.43 93.68 58.39 93.68 58.39 102.26 58.9 102.26 58.9 110.84 59.66 110.84 59.66 119.42 57.41 119.42 58 128 61.05 128 60.74 136.58 88.07 145.16 83.05 153.74 80.5 162.33 82.09 170.91 84.66 179.49 77.34 179.49 82.9 179.49 81.66 188.07 84.21 188.07 84.21 196.65 82.99 196.65 82.44 196.65 83.05 196.65 82.8 205.23 82.76 205.23 81.33 213.81 79.67 222.39 82.07 222.39 82.12 222.39 82.18" id="img-a92d1979-94" class="geometry color_range_indexing" stroke="#D4CA3A"/>
        <path fill="none" d="M25.04,50.99 L 25.04 50.99 25.04 50.99 25.04 50.99 33.62 52.51 33.62 52.51 33.62 52.51 33.62 52.51 42.2 55.64 42.2 55.64 42.2 55.64 42.2 55.64 50.78 56.47 50.78 56.47 50.78 56.47 50.78 56.47 59.36 68.66 59.36 68.66 59.36 68.66 59.36 68.66 67.94 54.7 67.94 54.7 76.52 56.6 76.52 56.6 76.52 56.6 76.52 56.6 85.1 57.16 85.1 57.16 93.68 51.2 93.68 51.2 102.26 53.75 102.26 53.75 110.84 56.41 110.84 56.41 119.42 55.95 119.42 53.16 128 58.33 128 52.52 136.58 56.55 145.16 56.89 153.74 52.6 162.33 56.53 170.91 64.36 179.49 65.8 179.49 62.86 179.49 62.86 188.07 64.79 188.07 64.79 196.65 63.64 196.65 64.94 196.65 64.18 196.65 63.72 205.23 64.94 205.23 64.24 213.81 64.25 222.39 63.56 222.39 63.29 222.39 64.38" id="img-a92d1979-95" class="geometry color_first" stroke="#D581CB"/>
        <path fill="none" d="M102.26,26.56 L 102.26 26.56 110.84 28.71 110.84 28.71 119.42 27.96 119.42 26.47 128 30.65 128 26.37 136.58 32.38 145.16 32.05 153.74 30.14 162.33 31.9 170.91 38.56 179.49 39.35 179.49 39.08 179.49 39.48 188.07 38.23 188.07 38.23 196.65 39.06 196.65 39.5 196.65 38.89 196.65 38.67 205.23 39.7 205.23 38.88 213.81 39.4 222.39 39.31 222.39 38.81 222.39 39.53" id="img-a92d1979-96" class="geometry color_median" stroke="#EF7C75"/>
        <path fill="none" d="M25.04,72.83 L 25.04 72.83 25.04 72.83 25.04 72.83 33.62 75.22 33.62 75.22 33.62 75.22 33.62 75.22 42.2 75.04 42.2 75.04 42.2 75.04 42.2 75.04 50.78 74.98 50.78 74.98 50.78 74.98 50.78 74.98 59.36 76.33 59.36 76.33 59.36 76.33 59.36 76.33 67.94 73.49 67.94 73.49 76.52 75.65 76.52 75.65 76.52 75.65 76.52 75.65 85.1 75.23 85.1 75.23 93.68 71.97 93.68 71.97 102.26 72.97 102.26 72.97 110.84 73.04 110.84 73.04 119.42 73.09 119.42 71.99 128 75.56 128 75.81 136.58 76.19 145.16 74.81 153.74 75.26 162.33 74.94 170.91 76.5 179.49 76.4 179.49 75.71 179.49 74.01 188.07 74.68 188.07 74.68 196.65 76.62 196.65 75.24 196.65 75.94 196.65 75.21 205.23 76.99 205.23 72.42 213.81 76.2 222.39 74.51 222.39 77.07 222.39 77.02" id="img-a92d1979-97" class="geometry color_max" stroke="#F08031"/>
        <path fill="none" d="M25.04,45.74 L 25.04 45.74 25.04 45.74 25.04 45.74 33.62 41.26 33.62 41.26 33.62 41.26 33.62 41.26 42.2 43.9 42.2 43.9 42.2 43.9 42.2 43.9 50.78 45.54 50.78 45.54 50.78 45.54 50.78 45.54 59.36 47.53 59.36 47.53 59.36 47.53 59.36 47.53 67.94 45.2 67.94 45.2 76.52 45.66 76.52 45.66 76.52 45.66 76.52 45.66 85.1 49.07 85.1 49.07 93.68 43.72 93.68 43.72 102.26 25.84 102.26 25.84 110.84 34.73 110.84 34.73 119.42 35.09 119.42 32.48 128 37.62 128 37.9 136.58 49.48 145.16 47.25 153.74 42.95 162.33 47.94 170.91 56.39 179.49 57.23 179.49 55.92 179.49 57.1 188.07 55.16 188.07 55.16 196.65 56.03 196.65 57.26 196.65 56.55 196.65 56.51 205.23 56.53 205.23 56.12 213.81 56.46 222.39 55.82 222.39 56.66 222.39 56.36" id="img-a92d1979-98" class="geometry color_scalar_add" stroke="#F6A6FF"/>
        <path fill="none" d="M67.94,100.17 L 67.94 100.17 76.52 101.22 76.52 101.22 76.52 101.22 76.52 101.22 85.1 94.05 85.1 94.05 93.68 95.79 93.68 95.79 102.26 100.16 102.26 100.16 110.84 94.71 110.84 94.71 119.42 94.46 119.42 99.26 128 100.71 128 101.06 136.58 99.8 145.16 97.01 153.74 96.63 162.33 101.72 170.91 101.91 179.49 101.59 179.49 101.64 179.49 101.64 188.07 101.52 188.07 101.52 196.65 96.99 196.65 101.73 196.65 100.78 196.65 101.87 205.23 98.26 205.23 97.67 213.81 100.89 222.39 101.59 222.39 98.39 222.39 101.59" id="img-a92d1979-99" class="geometry color_setting" stroke="#FF5EA0"/>
        <path fill="none" d="M25.04,90.3 L 25.04 90.3 25.04 90.3 25.04 90.3 33.62 104.74 33.62 104.74 33.62 104.74 33.62 104.74 42.2 109.02 42.2 109.02 42.2 109.02 42.2 109.02 50.78 104.74 50.78 104.74 50.78 104.74 50.78 104.74 59.36 104.39 59.36 104.39 59.36 104.39 59.36 104.39 67.94 104.59 67.94 104.59 76.52 107.69 76.52 107.69 76.52 107.69 76.52 107.69 85.1 109.1 85.1 109.1 93.68 109.02 93.68 109.02 102.26 106.67 102.26 106.67 110.84 103.94 110.84 103.94 119.42 109.21 119.42 103.84 128 109.84 128 109.84 136.58 109.63 145.16 107.06 153.74 108.87 162.33 103.91 170.91 107.4 179.49 108.92 179.49 109.44 179.49 109.41 188.07 108.84 188.07 108.84 196.65 108.3 196.65 109.1 196.65 107.04 196.65 108.62 205.23 104.91 205.23 107.69 213.81 104.67 222.39 108.51 222.39 108.87 222.39 109.14" id="img-a92d1979-100" class="geometry color_nrun" stroke="#FF928B"/>
      </g>
    </g>
  </g>
</g>
  <g class="guide ylabels" font-size="2.82" font-family="'PT Sans Caption','Helvetica Neue','Helvetica',sans-serif" fill="#6C606B" id="img-a92d1979-101">
    <text x="19.74" y="118.18" text-anchor="end" dy="0.35em" id="img-a92d1979-102">10<tspan style="dominant-baseline:inherit" dy="-0.6em" font-size="83%">-4</tspan><tspan dy="0.498000em"></tspan></text>
    <text x="19.74" y="95.94" text-anchor="end" dy="0.35em" id="img-a92d1979-103">10<tspan style="dominant-baseline:inherit" dy="-0.6em" font-size="83%">-3</tspan><tspan dy="0.498000em"></tspan></text>
    <text x="19.74" y="73.7" text-anchor="end" dy="0.35em" id="img-a92d1979-104">10<tspan style="dominant-baseline:inherit" dy="-0.6em" font-size="83%">-2</tspan><tspan dy="0.498000em"></tspan></text>
    <text x="19.74" y="51.47" text-anchor="end" dy="0.35em" id="img-a92d1979-105">10<tspan style="dominant-baseline:inherit" dy="-0.6em" font-size="83%">-1</tspan><tspan dy="0.498000em"></tspan></text>
    <text x="19.74" y="29.24" text-anchor="end" dy="0.35em" id="img-a92d1979-106">10<tspan style="dominant-baseline:inherit" dy="-0.6em" font-size="83%">0</tspan><tspan dy="0.498000em"></tspan></text>
    <text x="19.74" y="7" text-anchor="end" dy="0.35em" id="img-a92d1979-107">10<tspan style="dominant-baseline:inherit" dy="-0.6em" font-size="83%">1</tspan><tspan dy="0.498000em"></tspan></text>
  </g>
  <g font-size="3.88" font-family="'PT Sans','Helvetica Neue','Helvetica',sans-serif" fill="#564A55" stroke="#000000" stroke-opacity="0.000" id="img-a92d1979-108">
    <text x="8.81" y="60.59" text-anchor="middle" dy="0.35em" transform="rotate(-90, 8.81, 62.59)" id="img-a92d1979-109">log2 elapsed seconds (1e4 runs)</text>
  </g>
</g>
<defs>
  <clipPath id="img-a92d1979-45">
  <path d="M20.75,5 L 226.68 5 226.68 120.17 20.75 120.17" />
</clipPath>
</defs>
</svg>
