<svg class="marks" width="651" height="263" viewBox="0 0 651 263" version="1.1" xmlns="http://www.w3.org/2000/svg" xmlns:xlink="http://www.w3.org/1999/xlink"><g transform="translate(41,10)"><g class="mark-group role-frame root"><g transform="translate(0,0)"><path class="background" d="M0.5,0.5h500v200h-500Z" style="fill: none; stroke: #ddd;"></path><g><g class="mark-group role-axis"><g transform="translate(0.5,200.5)"><path class="background" d="M0,0h0v0h0Z" style="pointer-events: none; fill: none;"></path><g><g class="mark-rule role-axis-grid" style="pointer-events: none;"><line transform="translate(5,-200)" x2="0" y2="200" style="fill: none; stroke: #ddd; stroke-width: 1; opacity: 1;"></line><line transform="translate(50,-200)" x2="0" y2="200" style="fill: none; stroke: #ddd; stroke-width: 1; opacity: 1;"></line><line transform="translate(93,-200)" x2="0" y2="200" style="fill: none; stroke: #ddd; stroke-width: 1; opacity: 1;"></line><line transform="translate(136,-200)" x2="0" y2="200" style="fill: none; stroke: #ddd; stroke-width: 1; opacity: 1;"></line><line transform="translate(181,-200)" x2="0" y2="200" style="fill: none; stroke: #ddd; stroke-width: 1; opacity: 1;"></line><line transform="translate(225,-200)" x2="0" y2="200" style="fill: none; stroke: #ddd; stroke-width: 1; opacity: 1;"></line><line transform="translate(268,-200)" x2="0" y2="200" style="fill: none; stroke: #ddd; stroke-width: 1; opacity: 1;"></line><line transform="translate(312,-200)" x2="0" y2="200" style="fill: none; stroke: #ddd; stroke-width: 1; opacity: 1;"></line><line transform="translate(356,-200)" x2="0" y2="200" style="fill: none; stroke: #ddd; stroke-width: 1; opacity: 1;"></line><line transform="translate(400,-200)" x2="0" y2="200" style="fill: none; stroke: #ddd; stroke-width: 1; opacity: 1;"></line><line transform="translate(443,-200)" x2="0" y2="200" style="fill: none; stroke: #ddd; stroke-width: 1; opacity: 1;"></line><line transform="translate(487,-200)" x2="0" y2="200" style="fill: none; stroke: #ddd; stroke-width: 1; opacity: 1;"></line></g></g></g></g><g class="mark-group role-axis"><g transform="translate(0.5,0.5)"><path class="background" d="M0,0h0v0h0Z" style="pointer-events: none; fill: none;"></path><g><g class="mark-rule role-axis-grid" style="pointer-events: none;"><line transform="translate(0,200)" x2="500" y2="0" style="fill: none; stroke: #ddd; stroke-width: 1; opacity: 1;"></line><line transform="translate(0,160)" x2="500" y2="0" style="fill: none; stroke: #ddd; stroke-width: 1; opacity: 1;"></line><line transform="translate(0,120)" x2="500" y2="0" style="fill: none; stroke: #ddd; stroke-width: 1; opacity: 1;"></line><line transform="translate(0,80)" x2="500" y2="0" style="fill: none; stroke: #ddd; stroke-width: 1; opacity: 1;"></line><line transform="translate(0,40)" x2="500" y2="0" style="fill: none; stroke: #ddd; stroke-width: 1; opacity: 1;"></line><line transform="translate(0,0)" x2="500" y2="0" style="fill: none; stroke: #ddd; stroke-width: 1; opacity: 1;"></line></g></g></g></g><g class="mark-group role-scope pathgroup"><g transform="translate(0,0)"><path class="background" d="M0,0h500v200h-500Z" style="fill: none;"></path><g><g class="mark-line role-mark marks"><path d="M500,199.88679885864258L500,199.64599609375L500,199.8988151550293L500,199.89595413208008L500,199.88155364990234L500,199.89566802978516L307.1017274472169,199.84397888183594L303.742802303263,199.8448371887207L281.66986564299424,199.6616364L281.66986564299424,199.632454L267.2744721689059,198.94476L241.8426103646833,199.6948244L0,199.8591424" style="fill: none; stroke: #72b7b2; stroke-width: 2;"></path></g></g></g><g transform="translate(0,0)"><path class="background" d="M0,0h500v200h-500Z" style="fill: none;"></path><g><g class="mark-line role-mark marks"><path d="M500,198.86798858642578L500,198.85244369506836L500,198.81763458251953L500,198.97480010986328L500,198.89965057373047L500,198.8300323486328L307.1017274472169,198.2935905456543L303.742802303263,173.83241653442383L281.66986564299424,184.752L281.66986564299424,188.54724L267.2744721689059,184.284L241.8426103646833,187.74644L0,191.24288" style="fill: none; stroke: #4c78a8; stroke-width: 2;"></path></g></g></g><g transform="translate(0,0)"><path class="background" d="M0,0h500v200h-500Z" style="fill: none;"></path><g><g class="mark-line role-mark marks"><path d="M500,199.88479614257812L500,199.8931884765625L500,199.89242553710938L500,199.88718032836914L500,199.88927841186523L500,199.8851776123047L307.1017274472169,199.82318878173828L303.742802303263,199.7096061706543L281.66986564299424,199.8219492L281.66986564299424,199.7607232L267.2744721689059,199.8259544L241.8426103646833,199.818802L0,199.8375892" style="fill: none; stroke: #54a24b; stroke-width: 2;"></path></g></g></g><g transform="translate(0,0)"><path class="background" d="M0,0h500v200h-500Z" style="fill: none;"></path><g><g class="mark-line role-mark marks"><path d="M500,194.11354064941406L500,194.51360702514648L500,195.07074356079102L500,194.82755661010742L500,196.28515243530273L500,193.31083297729492L307.1017274472169,183.19644927978516L303.742802303263,189.24922943115234L281.66986564299424,189.42364L281.66986564299424,189.05516L267.2744721689059,189.1244L241.8426103646833,188.85604L0,184.43116" style="fill: none; stroke: #f58518; stroke-width: 2;"></path></g></g></g><g transform="translate(0,0)"><path class="background" d="M0,0h500v200h-500Z" style="fill: none;"></path><g><g class="mark-line role-mark marks"><path d="M500,176.45244598388672L500,171.64201736450195L500,179.7048568725586L500,174.4232177734375L500,166.75996780395508L500,179.06875610351562L307.1017274472169,168.157958984375L303.742802303263,169.64960098266602L281.66986564299424,155.8976L281.66986564299424,160.36884L267.2744721689059,159.1412L241.8426103646833,160.4348L0,182.65764000000001" style="fill: none; stroke: #e45756; stroke-width: 2;"></path></g></g></g><g transform="translate(0,0)"><path class="background" d="M0,0h500v200h-500Z" style="fill: none;"></path><g><g class="mark-line role-mark marks"><path d="M500,199.90873336791992L500,199.8912811279297L500,199.90320205688477L500,199.89795684814453L500,199.92046356201172L500,199.9079704284668L307.1017274472169,199.8363494873047L303.742802303263,199.88679885864258L281.66986564299424,199.8592376L281.66986564299424,199.8364448L267.2744721689059,199.8792648L241.8426103646833,199.794388L0,199.8940468" style="fill: none; stroke: #eeca3b; stroke-width: 2;"></path></g></g></g><g transform="translate(0,0)"><path class="background" d="M0,0h500v200h-500Z" style="fill: none;"></path><g><g class="mark-line role-mark marks"><path d="M500,199.9039649963379L500,199.87401962280273L500,199.90720748901367L500,199.91483688354492L500,199.91436004638672L500,199.8891830444336L307.1017274472169,199.8880386352539L303.742802303263,199.89681243896484L281.66986564299424,199.882412L281.66986564299424,199.878788L267.2744721689059,199.8968124L241.8426103646833,199.8740196L0,199.9064444" style="fill: none; stroke: #bab0ac; stroke-width: 2;"></path></g></g></g><g transform="translate(0,0)"><path class="background" d="M0,0h500v200h-500Z" style="fill: none;"></path><g><g class="mark-line role-mark marks"><path d="M500,195.67241668701172L500,195.69759368896484L500,195.61119079589844L500,195.76120376586914L500,195.37391662597656L500,195.57485580444336L307.1017274472169,196.63877487182617L303.742802303263,196.34075164794922L281.66986564299424,196.264744L281.66986564299424,196.007536L267.2744721689059,196.231176L241.8426103646833,196.04168L0,194.70032" style="fill: none; stroke: #ff9da6; stroke-width: 2;"></path></g></g></g><g transform="translate(0,0)"><path class="background" d="M0,0h500v200h-500Z" style="fill: none;"></path><g><g class="mark-line role-mark marks"><path d="M500,198.10638427734375L500,198.21720123291016L500,198.20117950439453L500,198.18763732910156L500,198.01597595214844L500,198.10237884521484L307.1017274472169,196.36201858520508L303.742802303263,195.31564712524414L281.66986564299424,196.020412L281.66986564299424,195.97596L267.2744721689059,195.61196L241.8426103646833,196.013164L0,195.6456" style="fill: none; stroke: #b279a2; stroke-width: 2;"></path></g></g></g><g transform="translate(0,0)"><path class="background" d="M0,0h500v200h-500Z" style="fill: none;"></path><g><g class="mark-line role-mark marks"><path d="M500,192.1635627746582L500,191.48845672607422L500,192.0100212097168L500,191.07637405395508L500,188.5751724243164L500,192.3135757446289L307.1017274472169,190.1484489440918L303.742802303263,189.6188735961914L281.66986564299424,191.05872L281.66986564299424,188.11924L267.2744721689059,193.386L241.8426103646833,190.93436L0,192.7292" style="fill: none; stroke: #ff9da6; stroke-width: 2;"></path></g></g></g><g transform="translate(0,0)"><path class="background" d="M0,0h500v200h-500Z" style="fill: none;"></path><g><g class="mark-line role-mark marks"><path d="M500,199.95040893554688L500,199.9500274658203L500,199.9436378479004L500,199.94354248046875L500,199.9368667602539L500,199.94440078735352L307.1017274472169,199.93438720703125L303.742802303263,199.93438720703125L281.66986564299424,199.9199868L281.66986564299424,199.9264716L267.2744721689059,199.9168396L241.8426103646833,199.9235152L0,199.954796" style="fill: none; stroke: #54a24b; stroke-width: 2;"></path></g></g></g><g transform="translate(0,0)"><path class="background" d="M0,0h500v200h-500Z" style="fill: none;"></path><g><g class="mark-line role-mark marks"><path d="M500,191.39280319213867L500,193.17560195922852L500,193.37158203125L500,189.98355865478516L500,190.4876708984375L500,190.13404846191406L307.1017274472169,191.00561141967773L303.742802303263,187.28713989257812L281.66986564299424,189.78404L281.66986564299424,189.05364L267.2744721689059,189.61964L241.8426103646833,191.7964L0,192.39672" style="fill: none; stroke: #e45756; stroke-width: 2;"></path></g></g></g><g transform="translate(0,0)"><path class="background" d="M0,0h500v200h-500Z" style="fill: none;"></path><g><g class="mark-line role-mark marks"><path d="M500,42.64564514160156L500,31.528854370117188L500,32.604408264160156L500,16.175270080566406L500,23.103618621826172L500,45.772457122802734L307.1017274472169,33.47959518432617L303.742802303263,25.708770751953125L281.66986564299424,24.901600000000002L281.66986564299424,24.7132L267.2744721689059,38.366799999999984L241.8426103646833,34.920799999999986L0,44.0292" style="fill: none; stroke: #4c78a8; stroke-width: 2;"></path></g></g></g><g transform="translate(0,0)"><path class="background" d="M0,0h500v200h-500Z" style="fill: none;"></path><g><g class="mark-line role-mark marks"><path d="M500,182.74879455566406L500,183.36725234985352L500,183.00762176513672L500,184.23242568969727L500,185.88199615478516L500,184.35401916503906L307.1017274472169,183.30440521240234L303.742802303263,182.3780059814453L281.66986564299424,183.56352L281.66986564299424,181.7708L267.2744721689059,187.06684L241.8426103646833,184.42364L0,187.30316" style="fill: none; stroke: #f58518; stroke-width: 2;"></path></g></g></g><g transform="translate(0,0)"><path class="background" d="M0,0h500v200h-500Z" style="fill: none;"></path><g><g class="mark-line role-mark marks"><path d="M500,127.02484130859375L500,134.40160751342773L500,129.42476272583008L500,120.4991340637207L500,129.85877990722656L500,125.50363540649414L307.1017274472169,143.40991973876953L303.742802303263,143.81399154663086L281.66986564299424,139.6488L281.66986564299424,134.7808L267.2744721689059,141.8632L241.8426103646833,134.4784L0,131.70839999999998" style="fill: none; stroke: #eeca3b; stroke-width: 2;"></path></g></g></g><g transform="translate(0,0)"><path class="background" d="M0,0h500v200h-500Z" style="fill: none;"></path><g><g class="mark-line role-mark marks"><path d="M500,187.54405975341797L500,188.02480697631836L500,186.2344741821289L500,176.38235092163086L500,185.05840301513672L500,185.88075637817383L307.1017274472169,179.98199462890625L303.742802303263,172.5224494934082L281.66986564299424,174.92236L281.66986564299424,176.73168L267.2744721689059,175.0552L241.8426103646833,176.26964L0,170.66556" style="fill: none; stroke: #72b7b2; stroke-width: 2;"></path></g></g></g><g transform="translate(0,0)"><path class="background" d="M0,0h500v200h-500Z" style="fill: none;"></path><g><g class="mark-line role-mark marks"><path d="M500,117.73557662963867L500,122.58596420288086L500,121.47722244262695L500,111.59801483154297L500,120.83883285522461L500,121.72517776489258L307.1017274472169,85.91842651367188L303.742802303263,81.2368392944336L281.66986564299424,87.98680000000002L281.66986564299424,98.1808L267.2744721689059,99.5936L241.8426103646833,96.4632L0,77.3912" style="fill: none; stroke: #9d755d; stroke-width: 2;"></path></g></g></g><g transform="translate(0,0)"><path class="background" d="M0,0h500v200h-500Z" style="fill: none;"></path><g><g class="mark-line role-mark marks"><path d="M500,195.1364517211914L500,195.14198303222656L500,195.1024055480957L500,194.6476936340332L500,194.88487243652344L500,195.1096534729004L307.1017274472169,192.64001846313477L303.742802303263,191.87602996826172L281.66986564299424,194.8824L281.66986564299424,194.70368L267.2744721689059,194.92244L241.8426103646833,195.04204L0,196.15078" style="fill: none; stroke: #b279a2; stroke-width: 2;"></path></g></g></g></g><g class="mark-group role-legend"><g transform="translate(520,0)"><path class="background" d="M0,0h85v248h-85Z" style="pointer-events: none; fill: none;"></path><g><g class="mark-group role-legend-entry"><g transform="translate(0,16)"><path class="background" d="M0,0h0v0h0Z" style="pointer-events: none; fill: none;"></path><g><g class="mark-group role-scope"><g transform="translate(0,0)"><path class="background" d="M0,0h84.388671875v11h-84.388671875Z" style="pointer-events: none; fill: none; opacity: 1;"></path><g><g class="mark-symbol role-legend-symbol" style="pointer-events: none;"><path transform="translate(6,6)" d="M-5,0L5,0" style="fill: none; stroke: #4c78a8; stroke-width: 1.5; opacity: 1;"></path></g><g class="mark-text role-legend-label" style="pointer-events: none;"><text text-anchor="start" transform="translate(16,9)" style="font-family: sans-serif; font-size: 10px; fill: #000; opacity: 1;">add_two_rles</text></g></g></g><g transform="translate(0,13)"><path class="background" d="M0,0h84.388671875v11h-84.388671875Z" style="pointer-events: none; fill: none; opacity: 1;"></path><g><g class="mark-symbol role-legend-symbol" style="pointer-events: none;"><path transform="translate(6,6)" d="M-5,0L5,0" style="fill: none; stroke: #f58518; stroke-width: 1.5; opacity: 1;"></path></g><g class="mark-text role-legend-label" style="pointer-events: none;"><text text-anchor="start" transform="translate(16,9)" style="font-family: sans-serif; font-size: 10px; fill: #000; opacity: 1;">disjoin</text></g></g></g><g transform="translate(0,26)"><path class="background" d="M0,0h84.388671875v11h-84.388671875Z" style="pointer-events: none; fill: none; opacity: 1;"></path><g><g class="mark-symbol role-legend-symbol" style="pointer-events: none;"><path transform="translate(6,6)" d="M-5,0L5,0" style="fill: none; stroke: #e45756; stroke-width: 1.5; opacity: 1;"></path></g><g class="mark-text role-legend-label" style="pointer-events: none;"><text text-anchor="start" transform="translate(16,9)" style="font-family: sans-serif; font-size: 10px; fill: #000; opacity: 1;">first</text></g></g></g><g transform="translate(0,39)"><path class="background" d="M0,0h84.388671875v11h-84.388671875Z" style="pointer-events: none; fill: none; opacity: 1;"></path><g><g class="mark-symbol role-legend-symbol" style="pointer-events: none;"><path transform="translate(6,6)" d="M-5,0L5,0" style="fill: none; stroke: #72b7b2; stroke-width: 1.5; opacity: 1;"></path></g><g class="mark-text role-legend-label" style="pointer-events: none;"><text text-anchor="start" transform="translate(16,9)" style="font-family: sans-serif; font-size: 10px; fill: #000; opacity: 1;">indexing</text></g></g></g><g transform="translate(0,52)"><path class="background" d="M0,0h84.388671875v11h-84.388671875Z" style="pointer-events: none; fill: none; opacity: 1;"></path><g><g class="mark-symbol role-legend-symbol" style="pointer-events: none;"><path transform="translate(6,6)" d="M-5,0L5,0" style="fill: none; stroke: #54a24b; stroke-width: 1.5; opacity: 1;"></path></g><g class="mark-text role-legend-label" style="pointer-events: none;"><text text-anchor="start" transform="translate(16,9)" style="font-family: sans-serif; font-size: 10px; fill: #000; opacity: 1;">last</text></g></g></g><g transform="translate(0,65)"><path class="background" d="M0,0h84.388671875v11h-84.388671875Z" style="pointer-events: none; fill: none; opacity: 1;"></path><g><g class="mark-symbol role-legend-symbol" style="pointer-events: none;"><path transform="translate(6,6)" d="M-5,0L5,0" style="fill: none; stroke: #eeca3b; stroke-width: 1.5; opacity: 1;"></path></g><g class="mark-text role-legend-label" style="pointer-events: none;"><text text-anchor="start" transform="translate(16,9)" style="font-family: sans-serif; font-size: 10px; fill: #000; opacity: 1;">length</text></g></g></g><g transform="translate(0,78)"><path class="background" d="M0,0h84.388671875v11h-84.388671875Z" style="pointer-events: none; fill: none; opacity: 1;"></path><g><g class="mark-symbol role-legend-symbol" style="pointer-events: none;"><path transform="translate(6,6)" d="M-5,0L5,0" style="fill: none; stroke: #b279a2; stroke-width: 1.5; opacity: 1;"></path></g><g class="mark-text role-legend-label" style="pointer-events: none;"><text text-anchor="start" transform="translate(16,9)" style="font-family: sans-serif; font-size: 10px; fill: #000; opacity: 1;">max</text></g></g></g><g transform="translate(0,91)"><path class="background" d="M0,0h84.388671875v11h-84.388671875Z" style="pointer-events: none; fill: none; opacity: 1;"></path><g><g class="mark-symbol role-legend-symbol" style="pointer-events: none;"><path transform="translate(6,6)" d="M-5,0L5,0" style="fill: none; stroke: #ff9da6; stroke-width: 1.5; opacity: 1;"></path></g><g class="mark-text role-legend-label" style="pointer-events: none;"><text text-anchor="start" transform="translate(16,9)" style="font-family: sans-serif; font-size: 10px; fill: #000; opacity: 1;">mean</text></g></g></g><g transform="translate(0,104)"><path class="background" d="M0,0h84.388671875v11h-84.388671875Z" style="pointer-events: none; fill: none; opacity: 1;"></path><g><g class="mark-symbol role-legend-symbol" style="pointer-events: none;"><path transform="translate(6,6)" d="M-5,0L5,0" style="fill: none; stroke: #9d755d; stroke-width: 1.5; opacity: 1;"></path></g><g class="mark-text role-legend-label" style="pointer-events: none;"><text text-anchor="start" transform="translate(16,9)" style="font-family: sans-serif; font-size: 10px; fill: #000; opacity: 1;">median</text></g></g></g><g transform="translate(0,117)"><path class="background" d="M0,0h84.388671875v11h-84.388671875Z" style="pointer-events: none; fill: none; opacity: 1;"></path><g><g class="mark-symbol role-legend-symbol" style="pointer-events: none;"><path transform="translate(6,6)" d="M-5,0L5,0" style="fill: none; stroke: #bab0ac; stroke-width: 1.5; opacity: 1;"></path></g><g class="mark-text role-legend-label" style="pointer-events: none;"><text text-anchor="start" transform="translate(16,9)" style="font-family: sans-serif; font-size: 10px; fill: #000; opacity: 1;">nrun</text></g></g></g><g transform="translate(0,130)"><path class="background" d="M0,0h84.388671875v11h-84.388671875Z" style="pointer-events: none; fill: none; opacity: 1;"></path><g><g class="mark-symbol role-legend-symbol" style="pointer-events: none;"><path transform="translate(6,6)" d="M-5,0L5,0" style="fill: none; stroke: #4c78a8; stroke-width: 1.5; opacity: 1;"></path></g><g class="mark-text role-legend-label" style="pointer-events: none;"><text text-anchor="start" transform="translate(16,9)" style="font-family: sans-serif; font-size: 10px; fill: #000; opacity: 1;">range_indexing</text></g></g></g><g transform="translate(0,143)"><path class="background" d="M0,0h84.388671875v11h-84.388671875Z" style="pointer-events: none; fill: none; opacity: 1;"></path><g><g class="mark-symbol role-legend-symbol" style="pointer-events: none;"><path transform="translate(6,6)" d="M-5,0L5,0" style="fill: none; stroke: #f58518; stroke-width: 1.5; opacity: 1;"></path></g><g class="mark-text role-legend-label" style="pointer-events: none;"><text text-anchor="start" transform="translate(16,9)" style="font-family: sans-serif; font-size: 10px; fill: #000; opacity: 1;">range_setting</text></g></g></g><g transform="translate(0,156)"><path class="background" d="M0,0h84.388671875v11h-84.388671875Z" style="pointer-events: none; fill: none; opacity: 1;"></path><g><g class="mark-symbol role-legend-symbol" style="pointer-events: none;"><path transform="translate(6,6)" d="M-5,0L5,0" style="fill: none; stroke: #e45756; stroke-width: 1.5; opacity: 1;"></path></g><g class="mark-text role-legend-label" style="pointer-events: none;"><text text-anchor="start" transform="translate(16,9)" style="font-family: sans-serif; font-size: 10px; fill: #000; opacity: 1;">scalar_add</text></g></g></g><g transform="translate(0,169)"><path class="background" d="M0,0h84.388671875v11h-84.388671875Z" style="pointer-events: none; fill: none; opacity: 1;"></path><g><g class="mark-symbol role-legend-symbol" style="pointer-events: none;"><path transform="translate(6,6)" d="M-5,0L5,0" style="fill: none; stroke: #72b7b2; stroke-width: 1.5; opacity: 1;"></path></g><g class="mark-text role-legend-label" style="pointer-events: none;"><text text-anchor="start" transform="translate(16,9)" style="font-family: sans-serif; font-size: 10px; fill: #000; opacity: 1;">scalar_less</text></g></g></g><g transform="translate(0,182)"><path class="background" d="M0,0h84.388671875v11h-84.388671875Z" style="pointer-events: none; fill: none; opacity: 1;"></path><g><g class="mark-symbol role-legend-symbol" style="pointer-events: none;"><path transform="translate(6,6)" d="M-5,0L5,0" style="fill: none; stroke: #54a24b; stroke-width: 1.5; opacity: 1;"></path></g><g class="mark-text role-legend-label" style="pointer-events: none;"><text text-anchor="start" transform="translate(16,9)" style="font-family: sans-serif; font-size: 10px; fill: #000; opacity: 1;">setting</text></g></g></g><g transform="translate(0,195)"><path class="background" d="M0,0h84.388671875v11h-84.388671875Z" style="pointer-events: none; fill: none; opacity: 1;"></path><g><g class="mark-symbol role-legend-symbol" style="pointer-events: none;"><path transform="translate(6,6)" d="M-5,0L5,0" style="fill: none; stroke: #eeca3b; stroke-width: 1.5; opacity: 1;"></path></g><g class="mark-text role-legend-label" style="pointer-events: none;"><text text-anchor="start" transform="translate(16,9)" style="font-family: sans-serif; font-size: 10px; fill: #000; opacity: 1;">which</text></g></g></g><g transform="translate(0,208)"><path class="background" d="M0,0h84.388671875v11h-84.388671875Z" style="pointer-events: none; fill: none; opacity: 1;"></path><g><g class="mark-symbol role-legend-symbol" style="pointer-events: none;"><path transform="translate(6,6)" d="M-5,0L5,0" style="fill: none; stroke: #b279a2; stroke-width: 1.5; opacity: 1;"></path></g><g class="mark-text role-legend-label" style="pointer-events: none;"><text text-anchor="start" transform="translate(16,9)" style="font-family: sans-serif; font-size: 10px; fill: #000; opacity: 1;">which_max</text></g></g></g><g transform="translate(0,221)"><path class="background" d="M0,0h84.388671875v11h-84.388671875Z" style="pointer-events: none; fill: none; opacity: 1;"></path><g><g class="mark-symbol role-legend-symbol" style="pointer-events: none;"><path transform="translate(6,6)" d="M-5,0L5,0" style="fill: none; stroke: #ff9da6; stroke-width: 1.5; opacity: 1;"></path></g><g class="mark-text role-legend-label" style="pointer-events: none;"><text text-anchor="start" transform="translate(16,9)" style="font-family: sans-serif; font-size: 10px; fill: #000; opacity: 1;">width</text></g></g></g></g></g></g></g><g class="mark-text role-legend-title" style="pointer-events: none;"><text text-anchor="start" transform="translate(0,9)" style="font-family: sans-serif; font-size: 11px; font-weight: bold; fill: #000; opacity: 1;">variable</text></g></g></g></g><g class="mark-group role-axis"><g transform="translate(0.5,200.5)"><path class="background" d="M0,0h0v0h0Z" style="pointer-events: none; fill: none;"></path><g><g class="mark-rule role-axis-tick" style="pointer-events: none;"><line transform="translate(5,0)" x2="0" y2="5" style="fill: none; stroke: #888; stroke-width: 1; opacity: 1;"></line><line transform="translate(50,0)" x2="0" y2="5" style="fill: none; stroke: #888; stroke-width: 1; opacity: 1;"></line><line transform="translate(93,0)" x2="0" y2="5" style="fill: none; stroke: #888; stroke-width: 1; opacity: 1;"></line><line transform="translate(136,0)" x2="0" y2="5" style="fill: none; stroke: #888; stroke-width: 1; opacity: 1;"></line><line transform="translate(181,0)" x2="0" y2="5" style="fill: none; stroke: #888; stroke-width: 1; opacity: 1;"></line><line transform="translate(225,0)" x2="0" y2="5" style="fill: none; stroke: #888; stroke-width: 1; opacity: 1;"></line><line transform="translate(268,0)" x2="0" y2="5" style="fill: none; stroke: #888; stroke-width: 1; opacity: 1;"></line><line transform="translate(312,0)" x2="0" y2="5" style="fill: none; stroke: #888; stroke-width: 1; opacity: 1;"></line><line transform="translate(356,0)" x2="0" y2="5" style="fill: none; stroke: #888; stroke-width: 1; opacity: 1;"></line><line transform="translate(400,0)" x2="0" y2="5" style="fill: none; stroke: #888; stroke-width: 1; opacity: 1;"></line><line transform="translate(443,0)" x2="0" y2="5" style="fill: none; stroke: #888; stroke-width: 1; opacity: 1;"></line><line transform="translate(487,0)" x2="0" y2="5" style="fill: none; stroke: #888; stroke-width: 1; opacity: 1;"></line></g><g class="mark-text role-axis-label" style="pointer-events: none;"><text text-anchor="middle" transform="translate(5.418266154830454,15)" style="font-family: sans-serif; font-size: 10px; fill: #000; opacity: 1;">October</text><text text-anchor="middle" transform="translate(49.58413307741523,15)" style="font-family: sans-serif; font-size: 10px; fill: #000; opacity: 1;">2017</text><text text-anchor="middle" transform="translate(92.75031989763276,15)" style="font-family: sans-serif; font-size: 10px; fill: #000; opacity: 1;">April</text><text text-anchor="middle" transform="translate(136.4163467690339,15)" style="font-family: sans-serif; font-size: 10px; fill: #000; opacity: 1;">July</text><text text-anchor="middle" transform="translate(180.56222008957135,15)" style="font-family: sans-serif; font-size: 10px; fill: #000; opacity: 1;">October</text><text text-anchor="middle" transform="translate(224.7280870121561,15)" style="font-family: sans-serif; font-size: 10px; fill: #000; opacity: 1;">2018</text><text text-anchor="middle" transform="translate(267.89427383237364,15)" style="font-family: sans-serif; font-size: 10px; fill: #000; opacity: 1;">April</text><text text-anchor="middle" transform="translate(311.5603007037748,15)" style="font-family: sans-serif; font-size: 10px; fill: #000; opacity: 1;">July</text><text text-anchor="middle" transform="translate(355.7061740243122,15)" style="font-family: sans-serif; font-size: 10px; fill: #000; opacity: 1;">October</text><text text-anchor="middle" transform="translate(399.872040946897,15)" style="font-family: sans-serif; font-size: 10px; fill: #000; opacity: 1;">2019</text><text text-anchor="middle" transform="translate(443.03822776711456,15)" style="font-family: sans-serif; font-size: 10px; fill: #000; opacity: 1;">April</text><text text-anchor="middle" transform="translate(486.7042546385157,15)" style="font-family: sans-serif; font-size: 10px; fill: #000; opacity: 1;">July</text></g><g class="mark-rule role-axis-domain" style="pointer-events: none;"><line transform="translate(0,0)" x2="500" y2="0" style="fill: none; stroke: #888; stroke-width: 1; opacity: 1;"></line></g><g class="mark-text role-axis-title" style="pointer-events: none;"><text text-anchor="middle" transform="translate(250,30)" style="font-family: sans-serif; font-size: 11px; font-weight: bold; fill: #000; opacity: 1;">date</text></g></g></g></g><g class="mark-group role-axis"><g transform="translate(0.5,0.5)"><path class="background" d="M0,0h0v0h0Z" style="pointer-events: none; fill: none;"></path><g><g class="mark-rule role-axis-tick" style="pointer-events: none;"><line transform="translate(0,200)" x2="-5" y2="0" style="fill: none; stroke: #888; stroke-width: 1; opacity: 1;"></line><line transform="translate(0,160)" x2="-5" y2="0" style="fill: none; stroke: #888; stroke-width: 1; opacity: 1;"></line><line transform="translate(0,120)" x2="-5" y2="0" style="fill: none; stroke: #888; stroke-width: 1; opacity: 1;"></line><line transform="translate(0,80)" x2="-5" y2="0" style="fill: none; stroke: #888; stroke-width: 1; opacity: 1;"></line><line transform="translate(0,40)" x2="-5" y2="0" style="fill: none; stroke: #888; stroke-width: 1; opacity: 1;"></line><line transform="translate(0,0)" x2="-5" y2="0" style="fill: none; stroke: #888; stroke-width: 1; opacity: 1;"></line></g><g class="mark-text role-axis-label" style="pointer-events: none;"><text text-anchor="end" transform="translate(-7,203)" style="font-family: sans-serif; font-size: 10px; fill: #000; opacity: 1;">0.0</text><text text-anchor="end" transform="translate(-7,163)" style="font-family: sans-serif; font-size: 10px; fill: #000; opacity: 1;">0.1</text><text text-anchor="end" transform="translate(-7,123)" style="font-family: sans-serif; font-size: 10px; fill: #000; opacity: 1;">0.2</text><text text-anchor="end" transform="translate(-7,83)" style="font-family: sans-serif; font-size: 10px; fill: #000; opacity: 1;">0.3</text><text text-anchor="end" transform="translate(-7,43)" style="font-family: sans-serif; font-size: 10px; fill: #000; opacity: 1;">0.4</text><text text-anchor="end" transform="translate(-7,3)" style="font-family: sans-serif; font-size: 10px; fill: #000; opacity: 1;">0.5</text></g><g class="mark-rule role-axis-domain" style="pointer-events: none;"><line transform="translate(0,200)" x2="0" y2="-200" style="fill: none; stroke: #888; stroke-width: 1; opacity: 1;"></line></g><g class="mark-text role-axis-title" style="pointer-events: none;"><text text-anchor="middle" transform="translate(-24.9013671875,100) rotate(-90) translate(0,-2)" style="font-family: sans-serif; font-size: 11px; font-weight: bold; fill: #000; opacity: 1;">value</text></g></g></g></g></g></g></g></g></svg>