<?xml version="1.0" encoding="UTF-8"?>
<svg xmlns="http://www.w3.org/2000/svg"
     xmlns:xlink="http://www.w3.org/1999/xlink"
     xmlns:gadfly="http://www.gadflyjl.org/ns"
     version="1.2"
     width="203.2mm" height="127mm" viewBox="0 0 203.2 127"
     stroke="none"
     fill="#000000"
     stroke-width="0.3"
     font-size="3.88"
>
<g class="plotroot yscalable" id="fig-723f389090a741889a8b708cc4c8ce89-element-1">
  <g font-size="3.88" font-family="'PT Sans','Helvetica Neue','Helvetica',sans-serif" fill="#564A55" stroke="none" id="fig-723f389090a741889a8b708cc4c8ce89-element-2">
    <text x="103.38" y="119" text-anchor="middle">x</text>
  </g>
  <g class="guide xlabels" font-size="2.82" font-family="'PT Sans Caption','Helvetica Neue','Helvetica',sans-serif" fill="#6C606B" id="fig-723f389090a741889a8b708cc4c8ce89-element-3">
    <text x="23.65" y="89.84" text-anchor="end" dy="0.35em" transform="rotate(-90, 23.65, 89.84)">indexing</text>
    <text x="35.04" y="89.84" text-anchor="end" dy="0.35em" transform="rotate(-90, 35.04, 89.84)">range_indexing</text>
    <text x="46.43" y="89.84" text-anchor="end" dy="0.35em" transform="rotate(-90, 46.43, 89.84)">setting</text>
    <text x="57.82" y="89.84" text-anchor="end" dy="0.35em" transform="rotate(-90, 57.82, 89.84)">range_setting</text>
    <text x="69.21" y="89.84" text-anchor="end" dy="0.35em" transform="rotate(-90, 69.21, 89.84)">scalar_add</text>
    <text x="80.6" y="89.84" text-anchor="end" dy="0.35em" transform="rotate(-90, 80.6, 89.84)">length</text>
    <text x="91.99" y="89.84" text-anchor="end" dy="0.35em" transform="rotate(-90, 91.99, 89.84)">nrun</text>
    <text x="103.38" y="89.84" text-anchor="end" dy="0.35em" transform="rotate(-90, 103.38, 89.84)">mean</text>
    <text x="114.76" y="89.84" text-anchor="end" dy="0.35em" transform="rotate(-90, 114.76, 89.84)">max</text>
    <text x="126.15" y="89.84" text-anchor="end" dy="0.35em" transform="rotate(-90, 126.15, 89.84)">width</text>
    <text x="137.54" y="89.84" text-anchor="end" dy="0.35em" transform="rotate(-90, 137.54, 89.84)">last</text>
    <text x="148.93" y="89.84" text-anchor="end" dy="0.35em" transform="rotate(-90, 148.93, 89.84)">first</text>
    <text x="160.32" y="89.84" text-anchor="end" dy="0.35em" transform="rotate(-90, 160.32, 89.84)">add_two_rles</text>
    <text x="171.71" y="89.84" text-anchor="end" dy="0.35em" transform="rotate(-90, 171.71, 89.84)">disjoin</text>
    <text x="183.1" y="89.84" text-anchor="end" dy="0.35em" transform="rotate(-90, 183.1, 89.84)">which</text>
  </g>
  <g class="guide colorkey" id="fig-723f389090a741889a8b708cc4c8ce89-element-4">
    <g font-size="2.82" font-family="'PT Sans','Helvetica Neue','Helvetica',sans-serif" fill="#4C404B" id="fig-723f389090a741889a8b708cc4c8ce89-element-5">
      <text x="193.11" y="52.47" dy="0.35em">5</text>
      <text x="193.11" y="46.61" dy="0.35em">10</text>
      <text x="193.11" y="70.07" dy="0.35em">-10</text>
      <text x="193.11" y="64.2" dy="0.35em">-5</text>
      <text x="193.11" y="58.34" dy="0.35em">0</text>
      <text x="193.11" y="75.93" dy="0.35em">-15</text>
      <text x="193.11" y="40.74" dy="0.35em">15</text>
    </g>
    <g shape-rendering="crispEdges" stroke="none" id="fig-723f389090a741889a8b708cc4c8ce89-element-6">
      <rect x="190.79" y="75.05" width="1.31" height="0.88" fill="#004D84"/>
      <rect x="190.79" y="74.17" width="1.31" height="0.88" fill="#005B8D"/>
      <rect x="190.79" y="73.29" width="1.31" height="0.88" fill="#006995"/>
      <rect x="190.79" y="72.41" width="1.31" height="0.88" fill="#00769D"/>
      <rect x="190.79" y="71.54" width="1.31" height="0.88" fill="#0083A3"/>
      <rect x="190.79" y="70.66" width="1.31" height="0.88" fill="#278FA9"/>
      <rect x="190.79" y="69.78" width="1.31" height="0.88" fill="#409BAF"/>
      <rect x="190.79" y="68.9" width="1.31" height="0.88" fill="#55A7B5"/>
      <rect x="190.79" y="68.02" width="1.31" height="0.88" fill="#69B2BA"/>
      <rect x="190.79" y="67.14" width="1.31" height="0.88" fill="#7BBCC0"/>
      <rect x="190.79" y="66.26" width="1.31" height="0.88" fill="#8DC6C5"/>
      <rect x="190.79" y="65.38" width="1.31" height="0.88" fill="#9ED0CB"/>
      <rect x="190.79" y="64.5" width="1.31" height="0.88" fill="#A5CFC7"/>
      <rect x="190.79" y="63.62" width="1.31" height="0.88" fill="#ABCEC4"/>
      <rect x="190.79" y="62.74" width="1.31" height="0.88" fill="#B1CCC2"/>
      <rect x="190.79" y="61.86" width="1.31" height="0.88" fill="#B5CCC1"/>
      <rect x="190.79" y="60.98" width="1.31" height="0.88" fill="#B7CBBF"/>
      <rect x="190.79" y="60.1" width="1.31" height="0.88" fill="#B9CBBD"/>
      <rect x="190.79" y="59.22" width="1.31" height="0.88" fill="#BBCBBB"/>
      <rect x="190.79" y="58.34" width="1.31" height="0.88" fill="#BDCABA"/>
      <rect x="190.79" y="57.46" width="1.31" height="0.88" fill="#BFCAB8"/>
      <rect x="190.79" y="56.58" width="1.31" height="0.88" fill="#C2C9B7"/>
      <rect x="190.79" y="55.7" width="1.31" height="0.88" fill="#C4C9B6"/>
      <rect x="190.79" y="54.82" width="1.31" height="0.88" fill="#C6C8B5"/>
      <rect x="190.79" y="53.94" width="1.31" height="0.88" fill="#C9C7B4"/>
      <rect x="190.79" y="53.06" width="1.31" height="0.88" fill="#CCC7B2"/>
      <rect x="190.79" y="52.18" width="1.31" height="0.88" fill="#CFC6AE"/>
      <rect x="190.79" y="51.3" width="1.31" height="0.88" fill="#D4C5AA"/>
      <rect x="190.79" y="50.42" width="1.31" height="0.88" fill="#D8C3A6"/>
      <rect x="190.79" y="49.54" width="1.31" height="0.88" fill="#D3B79A"/>
      <rect x="190.79" y="48.66" width="1.31" height="0.88" fill="#CDAB8E"/>
      <rect x="190.79" y="47.78" width="1.31" height="0.88" fill="#C89E82"/>
      <rect x="190.79" y="46.9" width="1.31" height="0.88" fill="#C19177"/>
      <rect x="190.79" y="46.02" width="1.31" height="0.88" fill="#BA836C"/>
      <rect x="190.79" y="45.14" width="1.31" height="0.88" fill="#B27563"/>
      <rect x="190.79" y="44.26" width="1.31" height="0.88" fill="#AA665A"/>
      <rect x="190.79" y="43.38" width="1.31" height="0.88" fill="#A05752"/>
      <rect x="190.79" y="42.5" width="1.31" height="0.88" fill="#96484A"/>
      <rect x="190.79" y="41.62" width="1.31" height="0.88" fill="#8B3844"/>
      <rect x="190.79" y="40.74" width="1.31" height="0.88" fill="#7E273E"/>
      <g stroke="#FFFFFF" stroke-width="0.2" id="fig-723f389090a741889a8b708cc4c8ce89-element-7">
        <path fill="none" d="M190.79,52.47 L 192.11 52.47"/>
        <path fill="none" d="M190.79,46.61 L 192.11 46.61"/>
        <path fill="none" d="M190.79,70.07 L 192.11 70.07"/>
        <path fill="none" d="M190.79,64.2 L 192.11 64.2"/>
        <path fill="none" d="M190.79,58.34 L 192.11 58.34"/>
        <path fill="none" d="M190.79,75.93 L 192.11 75.93"/>
        <path fill="none" d="M190.79,40.74 L 192.11 40.74"/>
      </g>
    </g>
    <g fill="#362A35" font-size="3.88" font-family="'PT Sans','Helvetica Neue','Helvetica',sans-serif" stroke="none" id="fig-723f389090a741889a8b708cc4c8ce89-element-8">
      <text x="190.79" y="36.74">Color</text>
    </g>
  </g>
  <g clip-path="url(#fig-723f389090a741889a8b708cc4c8ce89-element-10)" id="fig-723f389090a741889a8b708cc4c8ce89-element-9">
    <g pointer-events="visible" opacity="1" fill="none" stroke="none" class="guide background" id="fig-723f389090a741889a8b708cc4c8ce89-element-11">
      <rect x="17.96" y="12.61" width="170.83" height="76.23"/>
    </g>
    <g class="guide ygridlines xfixed" stroke-dasharray="0.5,0.5" stroke-width="0.2" stroke="#D0D0E0" id="fig-723f389090a741889a8b708cc4c8ce89-element-12">
      <path fill="none" d="M17.96,86.84 L 188.79 86.84"/>
      <path fill="none" d="M17.96,72.4 L 188.79 72.4"/>
      <path fill="none" d="M17.96,57.95 L 188.79 57.95"/>
      <path fill="none" d="M17.96,43.5 L 188.79 43.5"/>
      <path fill="none" d="M17.96,29.06 L 188.79 29.06"/>
      <path fill="none" d="M17.96,14.61 L 188.79 14.61"/>
    </g>
    <g class="guide xgridlines yfixed" stroke-dasharray="0.5,0.5" stroke-width="0.2" stroke="#D0D0E0" id="fig-723f389090a741889a8b708cc4c8ce89-element-13">
      <path fill="none" d="M29.35,12.61 L 29.35 88.84"/>
      <path fill="none" d="M40.74,12.61 L 40.74 88.84"/>
      <path fill="none" d="M52.13,12.61 L 52.13 88.84"/>
      <path fill="none" d="M63.51,12.61 L 63.51 88.84"/>
      <path fill="none" d="M74.9,12.61 L 74.9 88.84"/>
      <path fill="none" d="M86.29,12.61 L 86.29 88.84"/>
      <path fill="none" d="M97.68,12.61 L 97.68 88.84"/>
      <path fill="none" d="M109.07,12.61 L 109.07 88.84"/>
      <path fill="none" d="M120.46,12.61 L 120.46 88.84"/>
      <path fill="none" d="M131.85,12.61 L 131.85 88.84"/>
      <path fill="none" d="M143.24,12.61 L 143.24 88.84"/>
      <path fill="none" d="M154.63,12.61 L 154.63 88.84"/>
      <path fill="none" d="M166.02,12.61 L 166.02 88.84"/>
      <path fill="none" d="M177.4,12.61 L 177.4 88.84"/>
    </g>
    <g class="plotpanel" id="fig-723f389090a741889a8b708cc4c8ce89-element-14">
      <g class="xfixed" stroke-width="0.3" stroke="#000000" id="fig-723f389090a741889a8b708cc4c8ce89-element-15">
        <path fill="none" d="M17.96,72.4 L 188.79 72.4"/>
      </g>
      <g stroke="none" fill="#00BFFF" shape-rendering="crispEdges" id="fig-723f389090a741889a8b708cc4c8ce89-element-16">
        <g class="geometry" id="fig-723f389090a741889a8b708cc4c8ce89-element-17">
          <rect x="17.96" y="26.78" width="11.39" height="45.61" fill="#701338"/>
          <rect x="29.35" y="44.77" width="11.39" height="27.63" fill="#C29277"/>
          <rect x="40.74" y="24.45" width="11.39" height="47.95" fill="#610032"/>
          <rect x="52.13" y="63.48" width="11.39" height="8.91" fill="#C8C8B5"/>
          <rect x="63.51" y="56.11" width="11.39" height="16.29" fill="#D3C5AB"/>
          <rect x="74.9" y="44.99" width="11.39" height="27.41" fill="#C29379"/>
          <rect x="86.29" y="45.92" width="11.39" height="26.47" fill="#C5997D"/>
          <rect x="97.68" y="65.38" width="11.39" height="7.02" fill="#C6C8B5"/>
          <rect x="109.07" y="56.34" width="11.39" height="16.05" fill="#D2C5AB"/>
          <rect x="120.46" y="67.79" width="11.39" height="4.6" fill="#C3C9B6"/>
          <rect x="131.85" y="45.05" width="11.39" height="27.34" fill="#C29479"/>
          <rect x="143.24" y="68.11" width="11.39" height="4.28" fill="#C3C9B7"/>
          <rect x="154.63" y="67.94" width="11.39" height="4.45" fill="#C3C9B6"/>
          <rect x="166.02" y="44.38" width="11.39" height="28.02" fill="#C08F76"/>
          <rect x="177.4" y="72.4" width="11.39" height="1.79" fill="#BCCABA"/>
        </g>
      </g>
    </g>
  </g>
  <g class="guide ylabels" font-size="2.82" font-family="'PT Sans Caption','Helvetica Neue','Helvetica',sans-serif" fill="#6C606B" id="fig-723f389090a741889a8b708cc4c8ce89-element-18">
    <text x="16.96" y="86.84" text-anchor="end" dy="0.35em">-5</text>
    <text x="16.96" y="72.4" text-anchor="end" dy="0.35em">0</text>
    <text x="16.96" y="57.95" text-anchor="end" dy="0.35em">5</text>
    <text x="16.96" y="43.5" text-anchor="end" dy="0.35em">10</text>
    <text x="16.96" y="29.06" text-anchor="end" dy="0.35em">15</text>
    <text x="16.96" y="14.61" text-anchor="end" dy="0.35em">20</text>
  </g>
  <g font-size="3.88" font-family="'PT Sans','Helvetica Neue','Helvetica',sans-serif" fill="#564A55" stroke="none" id="fig-723f389090a741889a8b708cc4c8ce89-element-19">
    <text x="8.81" y="48.73" text-anchor="middle" dy="0.35em" transform="rotate(-90, 8.81, 50.73)">Elapsed Time: log2(R/julia)</text>
  </g>
  <g font-size="3.88" font-family="'PT Sans','Helvetica Neue','Helvetica',sans-serif" fill="#564A55" stroke="none" id="fig-723f389090a741889a8b708cc4c8ce89-element-20">
    <text x="103.38" y="10.61" text-anchor="middle">Relative Performance of R and Julia Rle Vectors</text>
  </g>
</g>
<defs>
<clipPath id="fig-723f389090a741889a8b708cc4c8ce89-element-10">
  <path d="M17.96,12.61 L 188.79 12.61 188.79 88.84 17.96 88.84" />
</clipPath
></defs>
</svg>
