<?xml version="1.0" encoding="UTF-8"?>
<svg xmlns="http://www.w3.org/2000/svg"
     xmlns:xlink="http://www.w3.org/1999/xlink"
     xmlns:gadfly="http://www.gadflyjl.org/ns"
     version="1.2"
     width="203.2mm" height="127mm" viewBox="0 0 203.2 127"
     stroke="none"
     fill="#000000"
     stroke-width="0.3"
     font-size="3.88"
>
<g class="plotroot yscalable" id="fig-4fe0e92ebc3d427e811c834a3d82cdf8-element-1">
  <g font-size="3.88" font-family="'PT Sans','Helvetica Neue','Helvetica',sans-serif" fill="#564A55" stroke="none" id="fig-4fe0e92ebc3d427e811c834a3d82cdf8-element-2">
    <text x="103.38" y="119" text-anchor="middle">x</text>
  </g>
  <g class="guide xlabels" font-size="2.82" font-family="'PT Sans Caption','Helvetica Neue','Helvetica',sans-serif" fill="#6C606B" id="fig-4fe0e92ebc3d427e811c834a3d82cdf8-element-3">
    <text x="22.98" y="89.84" text-anchor="end" dy="0.35em" transform="rotate(-90, 22.98, 89.84)">indexing</text>
    <text x="33.03" y="89.84" text-anchor="end" dy="0.35em" transform="rotate(-90, 33.03, 89.84)">range_indexing</text>
    <text x="43.08" y="89.84" text-anchor="end" dy="0.35em" transform="rotate(-90, 43.08, 89.84)">setting</text>
    <text x="53.13" y="89.84" text-anchor="end" dy="0.35em" transform="rotate(-90, 53.13, 89.84)">range_setting</text>
    <text x="63.18" y="89.84" text-anchor="end" dy="0.35em" transform="rotate(-90, 63.18, 89.84)">scalar_add</text>
    <text x="73.23" y="89.84" text-anchor="end" dy="0.35em" transform="rotate(-90, 73.23, 89.84)">length</text>
    <text x="83.28" y="89.84" text-anchor="end" dy="0.35em" transform="rotate(-90, 83.28, 89.84)">nrun</text>
    <text x="93.33" y="89.84" text-anchor="end" dy="0.35em" transform="rotate(-90, 93.33, 89.84)">mean</text>
    <text x="103.38" y="89.84" text-anchor="end" dy="0.35em" transform="rotate(-90, 103.38, 89.84)">max</text>
    <text x="113.42" y="89.84" text-anchor="end" dy="0.35em" transform="rotate(-90, 113.42, 89.84)">width</text>
    <text x="123.47" y="89.84" text-anchor="end" dy="0.35em" transform="rotate(-90, 123.47, 89.84)">last</text>
    <text x="133.52" y="89.84" text-anchor="end" dy="0.35em" transform="rotate(-90, 133.52, 89.84)">first</text>
    <text x="143.57" y="89.84" text-anchor="end" dy="0.35em" transform="rotate(-90, 143.57, 89.84)">add_two_rles</text>
    <text x="153.62" y="89.84" text-anchor="end" dy="0.35em" transform="rotate(-90, 153.62, 89.84)">disjoin</text>
    <text x="163.67" y="89.84" text-anchor="end" dy="0.35em" transform="rotate(-90, 163.67, 89.84)">which</text>
    <text x="173.72" y="89.84" text-anchor="end" dy="0.35em" transform="rotate(-90, 173.72, 89.84)">scalar_less</text>
    <text x="183.77" y="89.84" text-anchor="end" dy="0.35em" transform="rotate(-90, 183.77, 89.84)">median</text>
  </g>
  <g class="guide colorkey" id="fig-4fe0e92ebc3d427e811c834a3d82cdf8-element-4">
    <g font-size="2.82" font-family="'PT Sans','Helvetica Neue','Helvetica',sans-serif" fill="#4C404B" id="fig-4fe0e92ebc3d427e811c834a3d82cdf8-element-5">
      <text x="193.11" y="40.74" dy="0.35em">15</text>
      <text x="193.11" y="64.2" dy="0.35em">-5</text>
      <text x="193.11" y="46.61" dy="0.35em">10</text>
      <text x="193.11" y="52.47" dy="0.35em">5</text>
      <text x="193.11" y="75.93" dy="0.35em">-15</text>
      <text x="193.11" y="58.34" dy="0.35em">0</text>
      <text x="193.11" y="70.07" dy="0.35em">-10</text>
    </g>
    <g shape-rendering="crispEdges" stroke="none" id="fig-4fe0e92ebc3d427e811c834a3d82cdf8-element-6">
      <rect x="190.79" y="75.05" width="1.31" height="0.88" fill="#004D84"/>
      <rect x="190.79" y="74.17" width="1.31" height="0.88" fill="#005B8D"/>
      <rect x="190.79" y="73.29" width="1.31" height="0.88" fill="#006995"/>
      <rect x="190.79" y="72.41" width="1.31" height="0.88" fill="#00769D"/>
      <rect x="190.79" y="71.54" width="1.31" height="0.88" fill="#0083A3"/>
      <rect x="190.79" y="70.66" width="1.31" height="0.88" fill="#278FA9"/>
      <rect x="190.79" y="69.78" width="1.31" height="0.88" fill="#409BAF"/>
      <rect x="190.79" y="68.9" width="1.31" height="0.88" fill="#55A7B5"/>
      <rect x="190.79" y="68.02" width="1.31" height="0.88" fill="#69B2BA"/>
      <rect x="190.79" y="67.14" width="1.31" height="0.88" fill="#7BBCC0"/>
      <rect x="190.79" y="66.26" width="1.31" height="0.88" fill="#8DC6C5"/>
      <rect x="190.79" y="65.38" width="1.31" height="0.88" fill="#9ED0CB"/>
      <rect x="190.79" y="64.5" width="1.31" height="0.88" fill="#A5CFC7"/>
      <rect x="190.79" y="63.62" width="1.31" height="0.88" fill="#ABCEC4"/>
      <rect x="190.79" y="62.74" width="1.31" height="0.88" fill="#B1CCC2"/>
      <rect x="190.79" y="61.86" width="1.31" height="0.88" fill="#B5CCC1"/>
      <rect x="190.79" y="60.98" width="1.31" height="0.88" fill="#B7CBBF"/>
      <rect x="190.79" y="60.1" width="1.31" height="0.88" fill="#B9CBBD"/>
      <rect x="190.79" y="59.22" width="1.31" height="0.88" fill="#BBCBBB"/>
      <rect x="190.79" y="58.34" width="1.31" height="0.88" fill="#BDCABA"/>
      <rect x="190.79" y="57.46" width="1.31" height="0.88" fill="#BFCAB8"/>
      <rect x="190.79" y="56.58" width="1.31" height="0.88" fill="#C2C9B7"/>
      <rect x="190.79" y="55.7" width="1.31" height="0.88" fill="#C4C9B6"/>
      <rect x="190.79" y="54.82" width="1.31" height="0.88" fill="#C6C8B5"/>
      <rect x="190.79" y="53.94" width="1.31" height="0.88" fill="#C9C7B4"/>
      <rect x="190.79" y="53.06" width="1.31" height="0.88" fill="#CCC7B2"/>
      <rect x="190.79" y="52.18" width="1.31" height="0.88" fill="#CFC6AE"/>
      <rect x="190.79" y="51.3" width="1.31" height="0.88" fill="#D4C5AA"/>
      <rect x="190.79" y="50.42" width="1.31" height="0.88" fill="#D8C3A6"/>
      <rect x="190.79" y="49.54" width="1.31" height="0.88" fill="#D3B79A"/>
      <rect x="190.79" y="48.66" width="1.31" height="0.88" fill="#CDAB8E"/>
      <rect x="190.79" y="47.78" width="1.31" height="0.88" fill="#C89E82"/>
      <rect x="190.79" y="46.9" width="1.31" height="0.88" fill="#C19177"/>
      <rect x="190.79" y="46.02" width="1.31" height="0.88" fill="#BA836C"/>
      <rect x="190.79" y="45.14" width="1.31" height="0.88" fill="#B27563"/>
      <rect x="190.79" y="44.26" width="1.31" height="0.88" fill="#AA665A"/>
      <rect x="190.79" y="43.38" width="1.31" height="0.88" fill="#A05752"/>
      <rect x="190.79" y="42.5" width="1.31" height="0.88" fill="#96484A"/>
      <rect x="190.79" y="41.62" width="1.31" height="0.88" fill="#8B3844"/>
      <rect x="190.79" y="40.74" width="1.31" height="0.88" fill="#7E273E"/>
      <g stroke="#FFFFFF" stroke-width="0.2" id="fig-4fe0e92ebc3d427e811c834a3d82cdf8-element-7">
        <path fill="none" d="M190.79,40.74 L 192.11 40.74"/>
        <path fill="none" d="M190.79,64.2 L 192.11 64.2"/>
        <path fill="none" d="M190.79,46.61 L 192.11 46.61"/>
        <path fill="none" d="M190.79,52.47 L 192.11 52.47"/>
        <path fill="none" d="M190.79,75.93 L 192.11 75.93"/>
        <path fill="none" d="M190.79,58.34 L 192.11 58.34"/>
        <path fill="none" d="M190.79,70.07 L 192.11 70.07"/>
      </g>
    </g>
    <g fill="#362A35" font-size="3.88" font-family="'PT Sans','Helvetica Neue','Helvetica',sans-serif" stroke="none" id="fig-4fe0e92ebc3d427e811c834a3d82cdf8-element-8">
      <text x="190.79" y="36.74">Color</text>
    </g>
  </g>
  <g clip-path="url(#fig-4fe0e92ebc3d427e811c834a3d82cdf8-element-10)" id="fig-4fe0e92ebc3d427e811c834a3d82cdf8-element-9">
    <g pointer-events="visible" opacity="1" fill="none" stroke="none" class="guide background" id="fig-4fe0e92ebc3d427e811c834a3d82cdf8-element-11">
      <rect x="17.96" y="12.61" width="170.83" height="76.23"/>
    </g>
    <g class="guide ygridlines xfixed" stroke-dasharray="0.5,0.5" stroke-width="0.2" stroke="#D0D0E0" id="fig-4fe0e92ebc3d427e811c834a3d82cdf8-element-12">
      <path fill="none" d="M17.96,86.84 L 188.79 86.84"/>
      <path fill="none" d="M17.96,72.4 L 188.79 72.4"/>
      <path fill="none" d="M17.96,57.95 L 188.79 57.95"/>
      <path fill="none" d="M17.96,43.5 L 188.79 43.5"/>
      <path fill="none" d="M17.96,29.06 L 188.79 29.06"/>
      <path fill="none" d="M17.96,14.61 L 188.79 14.61"/>
    </g>
    <g class="guide xgridlines yfixed" stroke-dasharray="0.5,0.5" stroke-width="0.2" stroke="#D0D0E0" id="fig-4fe0e92ebc3d427e811c834a3d82cdf8-element-13">
      <path fill="none" d="M28.01,12.61 L 28.01 88.84"/>
      <path fill="none" d="M38.06,12.61 L 38.06 88.84"/>
      <path fill="none" d="M48.11,12.61 L 48.11 88.84"/>
      <path fill="none" d="M58.15,12.61 L 58.15 88.84"/>
      <path fill="none" d="M68.2,12.61 L 68.2 88.84"/>
      <path fill="none" d="M78.25,12.61 L 78.25 88.84"/>
      <path fill="none" d="M88.3,12.61 L 88.3 88.84"/>
      <path fill="none" d="M98.35,12.61 L 98.35 88.84"/>
      <path fill="none" d="M108.4,12.61 L 108.4 88.84"/>
      <path fill="none" d="M118.45,12.61 L 118.45 88.84"/>
      <path fill="none" d="M128.5,12.61 L 128.5 88.84"/>
      <path fill="none" d="M138.55,12.61 L 138.55 88.84"/>
      <path fill="none" d="M148.6,12.61 L 148.6 88.84"/>
      <path fill="none" d="M158.65,12.61 L 158.65 88.84"/>
      <path fill="none" d="M168.7,12.61 L 168.7 88.84"/>
      <path fill="none" d="M178.74,12.61 L 178.74 88.84"/>
    </g>
    <g class="plotpanel" id="fig-4fe0e92ebc3d427e811c834a3d82cdf8-element-14">
      <g class="xfixed" stroke-width="0.3" stroke="#000000" id="fig-4fe0e92ebc3d427e811c834a3d82cdf8-element-15">
        <path fill="none" d="M17.96,72.4 L 188.79 72.4"/>
      </g>
      <g stroke="none" fill="#00BFFF" shape-rendering="crispEdges" id="fig-4fe0e92ebc3d427e811c834a3d82cdf8-element-16">
        <g class="geometry" id="fig-4fe0e92ebc3d427e811c834a3d82cdf8-element-17">
          <rect x="17.96" y="27.52" width="10.05" height="44.88" fill="#751A3A"/>
          <rect x="28.01" y="44.66" width="10.05" height="27.74" fill="#C19177"/>
          <rect x="38.06" y="24.32" width="10.05" height="48.08" fill="#600032"/>
          <rect x="48.11" y="64.12" width="10.05" height="8.28" fill="#C7C8B5"/>
          <rect x="58.15" y="64.18" width="10.05" height="8.21" fill="#C7C8B5"/>
          <rect x="68.2" y="45.42" width="10.05" height="26.98" fill="#C4967B"/>
          <rect x="78.25" y="44.68" width="10.05" height="27.71" fill="#C19177"/>
          <rect x="88.3" y="64.42" width="10.05" height="7.98" fill="#C7C8B5"/>
          <rect x="98.35" y="56.53" width="10.05" height="15.87" fill="#D2C5AB"/>
          <rect x="108.4" y="67.57" width="10.05" height="4.82" fill="#C3C9B6"/>
          <rect x="118.45" y="44.19" width="10.05" height="28.2" fill="#C08E75"/>
          <rect x="128.5" y="68.07" width="10.05" height="4.33" fill="#C3C9B7"/>
          <rect x="138.55" y="70.92" width="10.05" height="1.48" fill="#C0CAB8"/>
          <rect x="148.6" y="44.04" width="10.05" height="28.35" fill="#BF8D74"/>
          <rect x="158.65" y="72.4" width="10.05" height="1.74" fill="#BDCABA"/>
          <rect x="168.7" y="64.44" width="10.05" height="7.95" fill="#C7C8B5"/>
          <rect x="178.74" y="55.62" width="10.05" height="16.77" fill="#D4C5AA"/>
        </g>
      </g>
    </g>
  </g>
  <g class="guide ylabels" font-size="2.82" font-family="'PT Sans Caption','Helvetica Neue','Helvetica',sans-serif" fill="#6C606B" id="fig-4fe0e92ebc3d427e811c834a3d82cdf8-element-18">
    <text x="16.96" y="86.84" text-anchor="end" dy="0.35em">-5</text>
    <text x="16.96" y="72.4" text-anchor="end" dy="0.35em">0</text>
    <text x="16.96" y="57.95" text-anchor="end" dy="0.35em">5</text>
    <text x="16.96" y="43.5" text-anchor="end" dy="0.35em">10</text>
    <text x="16.96" y="29.06" text-anchor="end" dy="0.35em">15</text>
    <text x="16.96" y="14.61" text-anchor="end" dy="0.35em">20</text>
  </g>
  <g font-size="3.88" font-family="'PT Sans','Helvetica Neue','Helvetica',sans-serif" fill="#564A55" stroke="none" id="fig-4fe0e92ebc3d427e811c834a3d82cdf8-element-19">
    <text x="8.81" y="48.73" text-anchor="middle" dy="0.35em" transform="rotate(-90, 8.81, 50.73)">Elapsed Time: log2(R/julia)</text>
  </g>
  <g font-size="3.88" font-family="'PT Sans','Helvetica Neue','Helvetica',sans-serif" fill="#564A55" stroke="none" id="fig-4fe0e92ebc3d427e811c834a3d82cdf8-element-20">
    <text x="103.38" y="10.61" text-anchor="middle">Relative Performance of R and Julia Rle Vectors</text>
  </g>
</g>
<defs>
<clipPath id="fig-4fe0e92ebc3d427e811c834a3d82cdf8-element-10">
  <path d="M17.96,12.61 L 188.79 12.61 188.79 88.84 17.96 88.84" />
</clipPath
></defs>
</svg>
