<?xml version="1.0" encoding="UTF-8"?>
<svg xmlns="http://www.w3.org/2000/svg"
     xmlns:xlink="http://www.w3.org/1999/xlink"
     xmlns:gadfly="http://www.gadflyjl.org/ns"
     version="1.2"
     width="203.2mm" height="127mm" viewBox="0 0 203.2 127"
     stroke="none"
     fill="#000000"
     stroke-width="0.3"
     font-size="3.88"
>
<g class="plotroot yscalable" id="fig-7069a92183f5439dab822fe4f296408c-element-1">
  <g font-size="3.88" font-family="'PT Sans','Helvetica Neue','Helvetica',sans-serif" fill="#564A55" stroke="none" id="fig-7069a92183f5439dab822fe4f296408c-element-2">
    <text x="98.31" y="119" text-anchor="middle">date</text>
  </g>
  <g class="guide xlabels" font-size="2.82" font-family="'PT Sans Caption','Helvetica Neue','Helvetica',sans-serif" fill="#6C606B" id="fig-7069a92183f5439dab822fe4f296408c-element-3">
    <text x="27.21" y="111.39" text-anchor="middle">4/3/15</text>
    <text x="40.14" y="111.39" text-anchor="middle">4/4/15</text>
    <text x="53.06" y="111.39" text-anchor="middle">4/6/15</text>
    <text x="65.99" y="111.39" text-anchor="middle">4/7/15</text>
    <text x="78.92" y="111.39" text-anchor="middle">4/8/15</text>
    <text x="91.85" y="111.39" text-anchor="middle">4/9/15</text>
    <text x="104.78" y="111.39" text-anchor="middle">4/10/15</text>
    <text x="117.7" y="111.39" text-anchor="middle">4/12/15</text>
    <text x="130.63" y="111.39" text-anchor="middle">4/13/15</text>
    <text x="143.56" y="111.39" text-anchor="middle">4/16/15</text>
    <text x="156.49" y="111.39" text-anchor="middle">4/19/15</text>
    <text x="169.42" y="111.39" text-anchor="middle">4/20/15</text>
  </g>
  <g class="guide colorkey" id="fig-7069a92183f5439dab822fe4f296408c-element-4">
    <g fill="#4C404B" font-size="2.82" font-family="'PT Sans','Helvetica Neue','Helvetica',sans-serif" id="fig-7069a92183f5439dab822fe4f296408c-element-5">
      <text x="179.69" y="29.16" dy="0.35em" id="fig-7069a92183f5439dab822fe4f296408c-element-6" class="color_indexing">indexing</text>
      <text x="179.69" y="32.78" dy="0.35em" id="fig-7069a92183f5439dab822fe4f296408c-element-7" class="color_range_indexing">range_indexing</text>
      <text x="179.69" y="36.41" dy="0.35em" id="fig-7069a92183f5439dab822fe4f296408c-element-8" class="color_setting">setting</text>
      <text x="179.69" y="40.04" dy="0.35em" id="fig-7069a92183f5439dab822fe4f296408c-element-9" class="color_range_setting">range_setting</text>
      <text x="179.69" y="43.66" dy="0.35em" id="fig-7069a92183f5439dab822fe4f296408c-element-10" class="color_scalar_add">scalar_add</text>
      <text x="179.69" y="47.29" dy="0.35em" id="fig-7069a92183f5439dab822fe4f296408c-element-11" class="color_length">length</text>
      <text x="179.69" y="50.92" dy="0.35em" id="fig-7069a92183f5439dab822fe4f296408c-element-12" class="color_nrun">nrun</text>
      <text x="179.69" y="54.54" dy="0.35em" id="fig-7069a92183f5439dab822fe4f296408c-element-13" class="color_mean">mean</text>
      <text x="179.69" y="58.17" dy="0.35em" id="fig-7069a92183f5439dab822fe4f296408c-element-14" class="color_max">max</text>
      <text x="179.69" y="61.8" dy="0.35em" id="fig-7069a92183f5439dab822fe4f296408c-element-15" class="color_width">width</text>
      <text x="179.69" y="65.42" dy="0.35em" id="fig-7069a92183f5439dab822fe4f296408c-element-16" class="color_last">last</text>
      <text x="179.69" y="69.05" dy="0.35em" id="fig-7069a92183f5439dab822fe4f296408c-element-17" class="color_first">first</text>
      <text x="179.69" y="72.68" dy="0.35em" id="fig-7069a92183f5439dab822fe4f296408c-element-18" class="color_add_two_rles">add_two_rles</text>
      <text x="179.69" y="76.3" dy="0.35em" id="fig-7069a92183f5439dab822fe4f296408c-element-19" class="color_disjoin">disjoin</text>
      <text x="179.69" y="79.93" dy="0.35em" id="fig-7069a92183f5439dab822fe4f296408c-element-20" class="color_which">which</text>
      <text x="179.69" y="83.56" dy="0.35em" id="fig-7069a92183f5439dab822fe4f296408c-element-21" class="color_scalar_less">scalar_less</text>
      <text x="179.69" y="87.18" dy="0.35em" id="fig-7069a92183f5439dab822fe4f296408c-element-22" class="color_median">median</text>
    </g>
    <g stroke="none" id="fig-7069a92183f5439dab822fe4f296408c-element-23">
      <rect x="176.88" y="28.25" width="1.81" height="1.81" id="fig-7069a92183f5439dab822fe4f296408c-element-24" class="color_indexing" fill="#00BFFF"/>
      <rect x="176.88" y="31.88" width="1.81" height="1.81" id="fig-7069a92183f5439dab822fe4f296408c-element-25" class="color_range_indexing" fill="#D4CA3A"/>
      <rect x="176.88" y="35.5" width="1.81" height="1.81" id="fig-7069a92183f5439dab822fe4f296408c-element-26" class="color_setting" fill="#FF5EA0"/>
      <rect x="176.88" y="39.13" width="1.81" height="1.81" id="fig-7069a92183f5439dab822fe4f296408c-element-27" class="color_range_setting" fill="#00E5B2"/>
      <rect x="176.88" y="42.76" width="1.81" height="1.81" id="fig-7069a92183f5439dab822fe4f296408c-element-28" class="color_scalar_add" fill="#F6A6FF"/>
      <rect x="176.88" y="46.38" width="1.81" height="1.81" id="fig-7069a92183f5439dab822fe4f296408c-element-29" class="color_length" fill="#9E9E9E"/>
      <rect x="176.88" y="50.01" width="1.81" height="1.81" id="fig-7069a92183f5439dab822fe4f296408c-element-30" class="color_nrun" fill="#FF928B"/>
      <rect x="176.88" y="53.64" width="1.81" height="1.81" id="fig-7069a92183f5439dab822fe4f296408c-element-31" class="color_mean" fill="#32B44E"/>
      <rect x="176.88" y="57.26" width="1.81" height="1.81" id="fig-7069a92183f5439dab822fe4f296408c-element-32" class="color_max" fill="#F08031"/>
      <rect x="176.88" y="60.89" width="1.81" height="1.81" id="fig-7069a92183f5439dab822fe4f296408c-element-33" class="color_width" fill="#00BBAA"/>
      <rect x="176.88" y="64.52" width="1.81" height="1.81" id="fig-7069a92183f5439dab822fe4f296408c-element-34" class="color_last" fill="#93C1FF"/>
      <rect x="176.88" y="68.14" width="1.81" height="1.81" id="fig-7069a92183f5439dab822fe4f296408c-element-35" class="color_first" fill="#D581CB"/>
      <rect x="176.88" y="71.77" width="1.81" height="1.81" id="fig-7069a92183f5439dab822fe4f296408c-element-36" class="color_add_two_rles" fill="#00DEE6"/>
      <rect x="176.88" y="75.4" width="1.81" height="1.81" id="fig-7069a92183f5439dab822fe4f296408c-element-37" class="color_disjoin" fill="#A28FFA"/>
      <rect x="176.88" y="79.02" width="1.81" height="1.81" id="fig-7069a92183f5439dab822fe4f296408c-element-38" class="color_which" fill="#8AAA16"/>
      <rect x="176.88" y="82.65" width="1.81" height="1.81" id="fig-7069a92183f5439dab822fe4f296408c-element-39" class="color_scalar_less" fill="#A3D57C"/>
      <rect x="176.88" y="86.28" width="1.81" height="1.81" id="fig-7069a92183f5439dab822fe4f296408c-element-40" class="color_median" fill="#EF7C75"/>
    </g>
    <g fill="#362A35" font-size="3.88" font-family="'PT Sans','Helvetica Neue','Helvetica',sans-serif" stroke="none" id="fig-7069a92183f5439dab822fe4f296408c-element-41">
      <text x="176.88" y="25.34" id="fig-7069a92183f5439dab822fe4f296408c-element-42">variable</text>
    </g>
  </g>
  <g clip-path="url(#fig-7069a92183f5439dab822fe4f296408c-element-44)" id="fig-7069a92183f5439dab822fe4f296408c-element-43">
    <g pointer-events="visible" opacity="1" fill="none" stroke="none" class="guide background" id="fig-7069a92183f5439dab822fe4f296408c-element-45">
      <rect x="20.75" y="5" width="155.13" height="102.72" id="fig-7069a92183f5439dab822fe4f296408c-element-46"/>
    </g>
    <g class="guide ygridlines xfixed" stroke-dasharray="0.5,0.5" stroke-width="0.2" stroke="#D0D0E0" id="fig-7069a92183f5439dab822fe4f296408c-element-47">
      <path fill="none" d="M20.75,105.72 L 175.88 105.72" id="fig-7069a92183f5439dab822fe4f296408c-element-48"/>
      <path fill="none" d="M20.75,85.97 L 175.88 85.97" id="fig-7069a92183f5439dab822fe4f296408c-element-49"/>
      <path fill="none" d="M20.75,66.23 L 175.88 66.23" id="fig-7069a92183f5439dab822fe4f296408c-element-50"/>
      <path fill="none" d="M20.75,46.49 L 175.88 46.49" id="fig-7069a92183f5439dab822fe4f296408c-element-51"/>
      <path fill="none" d="M20.75,26.74 L 175.88 26.74" id="fig-7069a92183f5439dab822fe4f296408c-element-52"/>
      <path fill="none" d="M20.75,7 L 175.88 7" id="fig-7069a92183f5439dab822fe4f296408c-element-53"/>
    </g>
    <g class="guide xgridlines yfixed" stroke-dasharray="0.5,0.5" stroke-width="0.2" stroke="#D0D0E0" id="fig-7069a92183f5439dab822fe4f296408c-element-54">
      <path fill="none" d="M33.67,5 L 33.67 107.72" id="fig-7069a92183f5439dab822fe4f296408c-element-55"/>
      <path fill="none" d="M46.6,5 L 46.6 107.72" id="fig-7069a92183f5439dab822fe4f296408c-element-56"/>
      <path fill="none" d="M59.53,5 L 59.53 107.72" id="fig-7069a92183f5439dab822fe4f296408c-element-57"/>
      <path fill="none" d="M72.46,5 L 72.46 107.72" id="fig-7069a92183f5439dab822fe4f296408c-element-58"/>
      <path fill="none" d="M85.38,5 L 85.38 107.72" id="fig-7069a92183f5439dab822fe4f296408c-element-59"/>
      <path fill="none" d="M98.31,5 L 98.31 107.72" id="fig-7069a92183f5439dab822fe4f296408c-element-60"/>
      <path fill="none" d="M111.24,5 L 111.24 107.72" id="fig-7069a92183f5439dab822fe4f296408c-element-61"/>
      <path fill="none" d="M124.17,5 L 124.17 107.72" id="fig-7069a92183f5439dab822fe4f296408c-element-62"/>
      <path fill="none" d="M137.1,5 L 137.1 107.72" id="fig-7069a92183f5439dab822fe4f296408c-element-63"/>
      <path fill="none" d="M150.02,5 L 150.02 107.72" id="fig-7069a92183f5439dab822fe4f296408c-element-64"/>
      <path fill="none" d="M162.95,5 L 162.95 107.72" id="fig-7069a92183f5439dab822fe4f296408c-element-65"/>
    </g>
    <g class="plotpanel" id="fig-7069a92183f5439dab822fe4f296408c-element-66">
      <g stroke-width="0.3" fill="none" id="fig-7069a92183f5439dab822fe4f296408c-element-67">
        <path fill="none" d="M27.21,13.87 L 27.21 13.87 27.21 13.87 27.21 13.87 40.14 21.33 40.14 21.33 40.14 21.33 40.14 21.33 53.06 24.98 53.06 24.98 53.06 24.98 53.06 24.98 65.99 25.12 65.99 25.12 65.99 25.12 65.99 25.12 78.92 26.28 78.92 26.28 78.92 26.28 78.92 26.28 91.85 25.04 91.85 25.04 104.78 24.44 104.78 24.44 104.78 24.44 104.78 24.44 117.7 24.83 117.7 24.83 130.63 24.61 130.63 24.61 143.56 18.12 143.56 18.12 156.49 22.4 156.49 22.4 169.42 21.81 169.42 20.92" id="fig-7069a92183f5439dab822fe4f296408c-element-68" stroke="#00DEE6" class="geometry color_add_two_rles"/>
        <path fill="none" d="M27.21,40.52 L 27.21 40.52 27.21 40.52 27.21 40.52 40.14 40.4 40.14 40.4 40.14 40.4 40.14 40.4 53.06 42.6 53.06 42.6 53.06 42.6 53.06 42.6 65.99 42.47 65.99 42.47 65.99 42.47 65.99 42.47 78.92 42.26 78.92 42.26 78.92 42.26 78.92 42.26 91.85 40.54 91.85 40.54 104.78 42.04 104.78 42.04 104.78 42.04 104.78 42.04 117.7 42.3 117.7 42.3 130.63 40.13 130.63 40.13 143.56 41.86 143.56 41.86 156.49 57.78 156.49 57.78 169.42 60.25 169.42 60.43" id="fig-7069a92183f5439dab822fe4f296408c-element-69" stroke="#32B44E" class="geometry color_mean"/>
        <path fill="none" d="M143.56,24.37 L 143.56 24.37 156.49 26.28 156.49 26.28 169.42 25.61 169.42 24.29" id="fig-7069a92183f5439dab822fe4f296408c-element-70" stroke="#EF7C75" class="geometry color_median"/>
        <path fill="none" d="M27.21,65.49 L 27.21 65.49 27.21 65.49 27.21 65.49 40.14 88.93 40.14 88.93 40.14 88.93 40.14 88.93 53.06 88.73 53.06 88.73 53.06 88.73 53.06 88.73 65.99 88.48 65.99 88.48 65.99 88.48 65.99 88.48 78.92 93.66 78.92 93.66 78.92 93.66 78.92 93.66 91.85 88.57 91.85 88.57 104.78 89.05 104.78 89.05 104.78 89.05 104.78 89.05 117.7 93.66 117.7 93.66 130.63 91.95 130.63 91.95 143.56 88.29 143.56 88.29 156.49 88.48 156.49 88.48 169.42 91.99 169.42 93.15" id="fig-7069a92183f5439dab822fe4f296408c-element-71" stroke="#00BFFF" class="geometry color_indexing"/>
        <path fill="none" d="M27.21,79.36 L 27.21 79.36 27.21 79.36 27.21 79.36 40.14 101.47 40.14 101.47 40.14 101.47 40.14 101.47 53.06 99.52 53.06 99.52 53.06 99.52 53.06 99.52 65.99 100.67 65.99 100.67 65.99 100.67 65.99 100.67 78.92 101.42 78.92 101.42 78.92 101.42 78.92 101.42 91.85 96.83 91.85 96.83 104.78 96.55 104.78 96.55 104.78 96.55 104.78 96.55 117.7 101.21 117.7 101.21 130.63 101.47 130.63 101.47 143.56 97.13 143.56 97.13 156.49 95.98 156.49 95.98 169.42 96.18 169.42 101.47" id="fig-7069a92183f5439dab822fe4f296408c-element-72" stroke="#93C1FF" class="geometry color_last"/>
        <path fill="none" d="M27.21,80.97 L 27.21 80.97 27.21 80.97 27.21 80.97 40.14 93.79 40.14 93.79 40.14 93.79 40.14 93.79 53.06 97.59 53.06 97.59 53.06 97.59 53.06 97.59 65.99 93.79 65.99 93.79 65.99 93.79 65.99 93.79 78.92 93.47 78.92 93.47 78.92 93.47 78.92 93.47 91.85 93.66 91.85 93.66 104.78 96.41 104.78 96.41 104.78 96.41 104.78 96.41 117.7 97.65 117.7 97.65 130.63 97.59 130.63 97.59 143.56 95.5 143.56 95.5 156.49 93.07 156.49 93.07 169.42 97.76 169.42 92.99" id="fig-7069a92183f5439dab822fe4f296408c-element-73" stroke="#FF928B" class="geometry color_nrun"/>
        <path fill="none" d="M91.85,25.68 L 91.85 25.68 104.78 27.1 104.78 27.1 104.78 27.1 104.78 27.1 117.7 27.38 117.7 27.38 130.63 22.63 130.63 22.63 143.56 24.89 143.56 24.89 156.49 26.05 156.49 26.05 169.42 25.32 169.42 23.81" id="fig-7069a92183f5439dab822fe4f296408c-element-74" stroke="#00E5B2" class="geometry color_range_setting"/>
        <path fill="none" d="M27.21,65.45 L 27.21 65.45 27.21 65.45 27.21 65.45 40.14 67.58 40.14 67.58 40.14 67.58 40.14 67.58 53.06 67.41 53.06 67.41 53.06 67.41 53.06 67.41 65.99 67.36 65.99 67.36 65.99 67.36 65.99 67.36 78.92 68.56 78.92 68.56 78.92 68.56 78.92 68.56 91.85 66.04 91.85 66.04 104.78 67.96 104.78 67.96 104.78 67.96 104.78 67.96 117.7 67.58 117.7 67.58 130.63 64.69 130.63 64.69 143.56 65.58 143.56 65.58 156.49 65.64 156.49 65.64 169.42 65.68 169.42 64.71" id="fig-7069a92183f5439dab822fe4f296408c-element-75" stroke="#F08031" class="geometry color_max"/>
        <path fill="none" d="M104.78,43.56 L 104.78 43.56 104.78 43.56 104.78 43.56 117.7 43.15 117.7 43.15 130.63 41.65 130.63 41.65 143.56 23.31 143.56 23.31 156.49 39.28 156.49 39.28 169.42 40.73 169.42 38.22" id="fig-7069a92183f5439dab822fe4f296408c-element-76" stroke="#A3D57C" class="geometry color_scalar_less"/>
        <path fill="none" d="M91.85,89.73 L 91.85 89.73 104.78 90.66 104.78 90.66 104.78 90.66 104.78 90.66 117.7 84.3 117.7 84.3 130.63 85.84 130.63 85.84 143.56 89.72 143.56 89.72 156.49 84.88 156.49 84.88 169.42 84.66 169.42 88.92" id="fig-7069a92183f5439dab822fe4f296408c-element-77" stroke="#FF5EA0" class="geometry color_setting"/>
        <path fill="none" d="M27.21,81.03 L 27.21 81.03 27.21 81.03 27.21 81.03 40.14 97.07 40.14 97.07 40.14 97.07 40.14 97.07 53.06 97.2 53.06 97.2 53.06 97.2 53.06 97.2 65.99 92.97 65.99 92.97 65.99 92.97 65.99 92.97 78.92 93.01 78.92 93.01 78.92 93.01 78.92 93.01 91.85 95.15 91.85 95.15 104.78 92.78 104.78 92.78 104.78 92.78 104.78 92.78 117.7 97.39 117.7 97.39 130.63 92.89 130.63 92.89 143.56 93.31 143.56 93.31 156.49 92.7 156.49 92.7 169.42 92.19 169.42 92.53" id="fig-7069a92183f5439dab822fe4f296408c-element-78" stroke="#9E9E9E" class="geometry color_length"/>
        <path fill="none" d="M27.21,41.4 L 27.21 41.4 27.21 41.4 27.21 41.4 40.14 37.42 40.14 37.42 40.14 37.42 40.14 37.42 53.06 39.77 53.06 39.77 53.06 39.77 53.06 39.77 65.99 41.22 65.99 41.22 65.99 41.22 65.99 41.22 78.92 42.98 78.92 42.98 78.92 42.98 78.92 42.98 91.85 40.91 91.85 40.91 104.78 41.33 104.78 41.33 104.78 41.33 104.78 41.33 117.7 44.35 117.7 44.35 130.63 39.6 130.63 39.6 143.56 23.73 143.56 23.73 156.49 31.62 156.49 31.62 169.42 31.94 169.42 29.62" id="fig-7069a92183f5439dab822fe4f296408c-element-79" stroke="#F6A6FF" class="geometry color_scalar_add"/>
        <path fill="none" d="M78.92,54.59 L 78.92 54.59 78.92 54.59 78.92 54.59 91.85 53.38 91.85 53.38 104.78 53.49 104.78 53.49 104.78 53.49 104.78 53.49 117.7 45.56 117.7 45.56 130.63 52.63 130.63 52.63 143.56 53.08 143.56 53.08 156.49 53.76 156.49 53.76 169.42 51.76 169.42 52.28" id="fig-7069a92183f5439dab822fe4f296408c-element-80" stroke="#D4CA3A" class="geometry color_range_indexing"/>
        <path fill="none" d="M27.21,45.11 L 27.21 45.11 27.21 45.11 27.21 45.11 40.14 47.84 40.14 47.84 40.14 47.84 40.14 47.84 53.06 49.96 53.06 49.96 53.06 49.96 53.06 49.96 65.99 51.02 65.99 51.02 65.99 51.02 65.99 51.02 78.92 50.19 78.92 50.19 78.92 50.19 78.92 50.19 91.85 48.66 91.85 48.66 104.78 51.61 104.78 51.61 104.78 51.61 104.78 51.61 117.7 51.05 117.7 51.05 130.63 45.9 130.63 45.9 143.56 48.32 143.56 48.32 156.49 51.86 156.49 51.86 169.42 49.48 169.42 47.35" id="fig-7069a92183f5439dab822fe4f296408c-element-81" stroke="#00BBAA" class="geometry color_width"/>
        <path fill="none" d="M27.21,46.06 L 27.21 46.06 27.21 46.06 27.21 46.06 40.14 47.41 40.14 47.41 40.14 47.41 40.14 47.41 53.06 50.19 53.06 50.19 53.06 50.19 53.06 50.19 65.99 50.93 65.99 50.93 65.99 50.93 65.99 50.93 78.92 61.75 78.92 61.75 78.92 61.75 78.92 61.75 91.85 49.35 91.85 49.35 104.78 51.04 104.78 51.04 104.78 51.04 104.78 51.04 117.7 51.54 117.7 51.54 130.63 46.24 130.63 46.24 143.56 48.51 143.56 48.51 156.49 50.87 156.49 50.87 169.42 50.47 169.42 47.98" id="fig-7069a92183f5439dab822fe4f296408c-element-82" stroke="#D581CB" class="geometry color_first"/>
        <path fill="none" d="M78.92,16.78 L 78.92 16.78 78.92 16.78 78.92 16.78 91.85 16.71 91.85 16.71 104.78 16.9 104.78 16.9 104.78 16.9 104.78 16.9 117.7 30.35 117.7 30.35 130.63 16.06 130.63 16.06 143.56 16.46 143.56 16.46 156.49 34.31 156.49 34.31 169.42 33.42 169.42 36.55" id="fig-7069a92183f5439dab822fe4f296408c-element-83" stroke="#8AAA16" class="geometry color_which"/>
        <path fill="none" d="M40.14,28.18 L 40.14 28.18 40.14 28.18 40.14 28.18 53.06 47.83 53.06 47.83 53.06 47.83 53.06 47.83 65.99 48.16 65.99 48.16 65.99 48.16 65.99 48.16 78.92 46.72 78.92 46.72 78.92 46.72 78.92 46.72 91.85 46.2 91.85 46.2 104.78 46.78 104.78 46.78 104.78 46.78 104.78 46.78 117.7 49.05 117.7 49.05 130.63 43.58 130.63 43.58 143.56 46.4 143.56 46.4 156.49 47.08 156.49 47.08 169.42 43.59 169.42 45.98" id="fig-7069a92183f5439dab822fe4f296408c-element-84" stroke="#A28FFA" class="geometry color_disjoin"/>
      </g>
    </g>
  </g>
  <g class="guide ylabels" font-size="2.82" font-family="'PT Sans Caption','Helvetica Neue','Helvetica',sans-serif" fill="#6C606B" id="fig-7069a92183f5439dab822fe4f296408c-element-85">
    <text x="19.74" y="105.72" text-anchor="end" dy="0.35em" id="fig-7069a92183f5439dab822fe4f296408c-element-86">10<tspan style="dominant-baseline:inherit" dy="-0.6em" font-size="83%">-4</tspan><tspan dy="0.498000em"></tspan></text>
    <text x="19.74" y="85.97" text-anchor="end" dy="0.35em" id="fig-7069a92183f5439dab822fe4f296408c-element-87">10<tspan style="dominant-baseline:inherit" dy="-0.6em" font-size="83%">-3</tspan><tspan dy="0.498000em"></tspan></text>
    <text x="19.74" y="66.23" text-anchor="end" dy="0.35em" id="fig-7069a92183f5439dab822fe4f296408c-element-88">10<tspan style="dominant-baseline:inherit" dy="-0.6em" font-size="83%">-2</tspan><tspan dy="0.498000em"></tspan></text>
    <text x="19.74" y="46.49" text-anchor="end" dy="0.35em" id="fig-7069a92183f5439dab822fe4f296408c-element-89">10<tspan style="dominant-baseline:inherit" dy="-0.6em" font-size="83%">-1</tspan><tspan dy="0.498000em"></tspan></text>
    <text x="19.74" y="26.74" text-anchor="end" dy="0.35em" id="fig-7069a92183f5439dab822fe4f296408c-element-90">10<tspan style="dominant-baseline:inherit" dy="-0.6em" font-size="83%">0</tspan><tspan dy="0.498000em"></tspan></text>
    <text x="19.74" y="7" text-anchor="end" dy="0.35em" id="fig-7069a92183f5439dab822fe4f296408c-element-91">10<tspan style="dominant-baseline:inherit" dy="-0.6em" font-size="83%">1</tspan><tspan dy="0.498000em"></tspan></text>
  </g>
  <g font-size="3.88" font-family="'PT Sans','Helvetica Neue','Helvetica',sans-serif" fill="#564A55" stroke="none" id="fig-7069a92183f5439dab822fe4f296408c-element-92">
    <text x="8.81" y="54.36" text-anchor="middle" dy="0.35em" transform="rotate(-90, 8.81, 56.36)" id="fig-7069a92183f5439dab822fe4f296408c-element-93">log10 elapsed seconds, 1e4 calls</text>
  </g>
</g>
<defs>
<clipPath id="fig-7069a92183f5439dab822fe4f296408c-element-44">
  <path d="M20.75,5 L 175.88 5 175.88 107.72 20.75 107.72" />
</clipPath
></defs>
</svg>
